<svg xmlns="http://www.w3.org/2000/svg" viewBox="0 0 500 500"><g id="freepik--background-complete--inject-41"><polygon points="402.21 282.38 433.92 282.38 452.07 191.88 423.04 178.54 402.21 282.38" style="fill:#dbdbdb"></polygon><polygon points="311.43 282.38 402.21 282.38 423.04 178.54 332.26 178.54 311.43 282.38" style="fill:#ebebeb"></polygon><rect x="418.49" y="233.82" width="48.61" height="99.73" transform="translate(885.59 567.38) rotate(180)" style="fill:#dbdbdb"></rect><polygon points="288.11 333.56 301.39 333.56 321.17 233.82 288.11 233.82 288.11 333.56" style="fill:#dbdbdb"></polygon><rect x="391.78" y="233.82" width="26.71" height="99.73" transform="translate(810.28 567.38) rotate(180)" style="fill:#ebebeb"></rect><rect x="261.4" y="233.82" width="26.71" height="99.73" transform="translate(549.51 567.38) rotate(180)" style="fill:#ebebeb"></rect><rect x="288.11" y="282.38" width="103.68" height="51.18" transform="translate(679.89 615.93) rotate(180)" style="fill:#ebebeb"></rect><rect x="288.11" y="260.25" width="103.68" height="22.33" transform="translate(679.89 542.84) rotate(180)" style="fill:#ebebeb"></rect><path d="M412,233.82l-10.08-.18-10.09-.12h-.3v.31l-.11,11.68-.05,11.67c0,7.78-.05,15.56,0,23.34s0,15.56.14,23.34.17,15.56.33,23.34q.25-11.67.34-23.34c.1-7.78.11-15.56.14-23.34s0-15.56,0-23.34l0-11.67-.11-11.68-.31.31,10.09-.13Z" style="fill:#dbdbdb"></path><path d="M288.11,233.82c-.21,7.81-.31,15.62-.39,23.43l-.12,23.43.12,23.43.14,11.72.25,11.71.24-11.71.14-11.72.12-23.43-.12-23.43C288.41,249.44,288.31,241.63,288.11,233.82Z" style="fill:#dbdbdb"></path><path d="M288.11,282.38c8.64.2,17.28.3,25.92.38l25.92.12,25.91-.12,13-.14,13-.24-13-.25-13-.14L340,281.87,314,282C305.39,282.07,296.75,282.17,288.11,282.38Z" style="fill:#dbdbdb"></path><path d="M288.11,260.25c8.64.21,17.28.31,25.92.39l25.92.11,25.91-.11,13-.14,13-.25-13-.25-13-.14L340,259.75l-25.92.12C305.39,260,296.75,260,288.11,260.25Z" style="fill:#dbdbdb"></path><polygon points="448.62 333.55 449.28 341.63 450.82 360.3 457.86 360.3 459.39 341.63 460.05 333.55 448.62 333.55" style="fill:#c7c7c7"></polygon><polygon points="460.05 333.55 448.62 333.55 449.28 341.63 459.39 341.63 460.05 333.55" style="fill:#a6a6a6"></polygon><polygon points="399.43 333.55 400.08 341.63 401.62 360.3 408.66 360.3 410.19 341.63 410.85 333.55 399.43 333.55" style="fill:#c7c7c7"></polygon><polygon points="410.85 333.55 399.43 333.55 400.08 341.63 410.19 341.63 410.85 333.55" style="fill:#a6a6a6"></polygon><polygon points="317.82 333.55 318.48 341.63 320.01 360.3 327.05 360.3 328.59 341.63 329.25 333.55 317.82 333.55" style="fill:#c7c7c7"></polygon><polygon points="329.25 333.55 317.82 333.55 318.48 341.63 328.59 341.63 329.25 333.55" style="fill:#a6a6a6"></polygon><polygon points="268.61 333.55 269.27 341.63 270.81 360.3 277.84 360.3 279.38 341.63 280.04 333.55 268.61 333.55" style="fill:#c7c7c7"></polygon><polygon points="268.61 333.55 269.27 341.63 279.38 341.63 280.04 333.55 268.61 333.55" style="fill:#a6a6a6"></polygon><rect x="40.48" y="49.22" width="153.02" height="203.96" style="fill:#dbdbdb"></rect><rect x="47.73" y="57.39" width="66.17" height="90.72" style="fill:#fff"></rect><rect x="120.08" y="57.39" width="66.17" height="90.72" style="fill:#fff"></rect><rect x="47.73" y="154.29" width="66.17" height="90.72" style="fill:#fff"></rect><rect x="120.08" y="154.29" width="66.17" height="90.72" style="fill:#fff"></rect><rect x="40.48" y="49.22" width="31.51" height="291.8" style="fill:#ebebeb"></rect><polygon points="66.02 63.09 66.26 94.64 66.35 126.19 66.52 189.29 66.35 252.39 66.26 283.94 66.02 315.49 65.77 283.94 65.68 252.39 65.52 189.29 65.68 126.19 65.77 94.64 66.02 63.09" style="fill:#fff"></polygon><polygon points="51.55 70.41 51.79 98.58 51.93 126.75 52.05 183.09 51.93 239.44 51.79 267.61 51.55 295.78 51.3 267.61 51.16 239.44 51.05 183.09 51.17 126.75 51.31 98.58 51.55 70.41" style="fill:#fff"></polygon><polygon points="58.78 77.06 59.02 110.04 59.11 143.03 59.28 209 59.12 274.98 59.03 307.96 58.78 340.95 58.54 307.96 58.45 274.98 58.28 209 58.45 143.03 58.54 110.04 58.78 77.06" style="fill:#fff"></polygon><polygon points="46.17 64.75 46.41 99.28 46.5 133.8 46.67 202.85 46.5 271.9 46.41 306.43 46.17 340.95 45.92 306.43 45.84 271.9 45.67 202.85 45.84 133.8 45.93 99.28 46.17 64.75" style="fill:#fff"></polygon><rect x="161.99" y="49.22" width="31.51" height="291.8" transform="translate(355.5 390.23) rotate(180)" style="fill:#ebebeb"></rect><polygon points="167.97 63.09 168.21 94.64 168.3 126.19 168.47 189.29 168.3 252.39 168.21 283.94 167.97 315.49 167.72 283.94 167.64 252.39 167.47 189.29 167.64 126.19 167.72 94.64 167.97 63.09" style="fill:#fff"></polygon><polygon points="182.44 70.41 182.68 98.58 182.82 126.75 182.93 183.09 182.82 239.44 182.68 267.61 182.44 295.78 182.19 267.61 182.05 239.44 181.94 183.09 182.05 126.75 182.19 98.58 182.44 70.41" style="fill:#fff"></polygon><polygon points="175.2 77.06 175.44 110.04 175.53 143.03 175.7 209 175.53 274.98 175.45 307.96 175.2 340.95 174.96 307.96 174.87 274.98 174.7 209 174.87 143.03 174.96 110.04 175.2 77.06" style="fill:#fff"></polygon><polygon points="187.81 64.75 188.06 99.28 188.15 133.8 188.31 202.85 188.15 271.9 188.06 306.43 187.81 340.95 187.57 306.43 187.48 271.9 187.32 202.85 187.48 133.8 187.57 99.28 187.81 64.75" style="fill:#fff"></polygon><rect x="256.13" y="65.54" width="53.56" height="64.97" style="fill:#ebebeb"></rect><rect x="262.25" y="71.47" width="41.32" height="53.11" style="fill:#fff"></rect><rect x="262.25" y="71.47" width="1.61" height="53.11" style="fill:#dbdbdb"></rect><rect x="309.7" y="65.54" width="1.61" height="64.97" style="fill:#dbdbdb"></rect><rect x="276.1" y="78.79" width="9.74" height="29.03" style="fill:#dbdbdb"></rect><path d="M298.33,113.28h-27V98.06h27Zm-26-1h25V99.06h-25Z" style="fill:#ebebeb"></path><rect x="404.68" y="65.54" width="53.56" height="64.97" style="fill:#ebebeb"></rect><rect x="410.8" y="71.47" width="41.32" height="53.11" style="fill:#fff"></rect><rect x="410.8" y="71.47" width="1.61" height="53.11" style="fill:#dbdbdb"></rect><rect x="458.24" y="65.54" width="1.61" height="64.97" style="fill:#dbdbdb"></rect><rect x="424.64" y="78.79" width="9.74" height="29.03" style="fill:#dbdbdb"></rect><path d="M446.87,113.28h-27V98.06h27Zm-26-1h25V99.06h-25Z" style="fill:#ebebeb"></path><rect x="330.4" y="65.54" width="53.56" height="64.97" style="fill:#ebebeb"></rect><rect x="336.52" y="71.47" width="41.32" height="53.11" style="fill:#fff"></rect><rect x="336.52" y="71.47" width="1.61" height="53.11" style="fill:#dbdbdb"></rect><rect x="383.97" y="65.54" width="1.61" height="64.97" style="fill:#dbdbdb"></rect><rect x="353.18" y="85.2" width="8.35" height="21.11" style="fill:#ebebeb"></rect><path d="M370.82,113.07H347.4V97.52h23.42Zm-22.42-1h21.42V98.52H348.4Z" style="fill:#dbdbdb"></path></g><g id="freepik--Shadow--inject-41"><ellipse cx="250" cy="427.58" rx="213.95" ry="27.54" style="fill:#ebebeb"></ellipse></g><g id="freepik--Plant--inject-41"><path d="M70.06,291.18c-5.81-11.93-16-18.06-27.42-14.68S29.41,295.86,38,299.89s17.1-7.74,21.61-10.16S70.06,291.18,70.06,291.18Z" style="fill:#7E57C2"></path><path d="M75.68,323c0-1.44-.09-2.88-.14-4.32q-.15-4.31-.31-8.61c-.19-5.26-.76-10.41-2.93-15.26a23.69,23.69,0,0,0-9.21-10.61,19.32,19.32,0,0,0-4.84-2.09A11.28,11.28,0,0,0,52.6,279a23,23,0,0,0-8.06-.21c-.1,0-.09.17,0,.15a19.39,19.39,0,0,1,7.62.55,15.87,15.87,0,0,1,3.07,1.19A14.12,14.12,0,0,1,57,281.77a16.37,16.37,0,0,0-7,.07,15,15,0,0,0-2.43.8,7.2,7.2,0,0,0-1.9-.17,11.51,11.51,0,0,0-2.48.36,18.13,18.13,0,0,0-4.71,2.06c-.09,0,0,.17.08.12a17.93,17.93,0,0,1,4.59-1.73,15.73,15.73,0,0,1,2.37-.34,11.45,11.45,0,0,1,1.31,0,15.16,15.16,0,0,0-7.4,7.37c0,.09.09.17.13.08A14,14,0,0,1,49,282.83c.26-.06.52-.09.77-.14a11.51,11.51,0,0,0-.12,1.15c-.08.58-.18,1.16-.29,1.73a30.6,30.6,0,0,1-.93,3.5A27.59,27.59,0,0,1,47,292.45a15.84,15.84,0,0,1-1.94,3.27.08.08,0,1,0,.12.09c.69-1.08,1.49-2.07,2.12-3.19a24,24,0,0,0,1.55-3.33,22.46,22.46,0,0,0,1-3.58c.13-.64.23-1.29.3-1.94a4.31,4.31,0,0,0,.08-1.19,15.76,15.76,0,0,1,4.06-.08c-.51,2.85-1.05,5.82-2.65,8.29-.05.08.09.16.14.07a32.39,32.39,0,0,0,2-4.07,15.49,15.49,0,0,0,1-4.24,18.87,18.87,0,0,1,6.72,2.25,22.26,22.26,0,0,1,8.95,9.79,37,37,0,0,1,3.32,14c.38,6.1.46,12.24,1.07,18.32,0,.4.67.53.74.08A22.22,22.22,0,0,0,75.68,323Z" style="fill:#263238"></path><path d="M62.26,283.19A7,7,0,0,0,60.94,282c-.48-.39-1-.77-1.48-1.12a10.85,10.85,0,0,0-3.29-1.53c-.1,0-.14.13,0,.15a8.67,8.67,0,0,1,3.25,1.6c.49.36,1,.74,1.41,1.13a7.88,7.88,0,0,0,1.33,1.13C62.21,283.38,62.32,283.28,62.26,283.19Z" style="fill:#263238"></path><path d="M43.73,287.52A35,35,0,0,0,41.06,291a21.92,21.92,0,0,0-2,3.93s.05.06.07,0a47.15,47.15,0,0,1,4.69-7.37C43.9,287.55,43.79,287.44,43.73,287.52Z" style="fill:#263238"></path><path d="M56.22,286.34a8.5,8.5,0,0,1-.66,2.15,14,14,0,0,1-1.1,1.92s0,.08.06,0a7.75,7.75,0,0,0,1.85-4.09C56.38,286.28,56.23,286.24,56.22,286.34Z" style="fill:#263238"></path><path d="M74.87,291.47S83.09,281.14,99,284.8c15.08,3.49,22,31.14,6.8,34.45S93.2,297,87.65,292.62C83.58,289.44,77.71,290.12,74.87,291.47Z" style="fill:#7E57C2"></path><path d="M111.21,299.91a30.49,30.49,0,0,0-3.27-2.51,14.35,14.35,0,0,0-3.48-1.74,22.06,22.06,0,0,0-2.07-2.66,20.65,20.65,0,0,0-4.8-3.82l.47,0a23.73,23.73,0,0,1,2.53,0,13.81,13.81,0,0,1,4.89,1.22c.09,0,.16-.1.07-.14a22.61,22.61,0,0,0-4.89-1.48,13.69,13.69,0,0,0-2.48-.21c-.44,0-.89,0-1.33.08l-.26,0A21,21,0,0,0,92,287c.15,0,.29-.09.44-.12a20.94,20.94,0,0,1,2.35-.39,18.43,18.43,0,0,1,4.75.07c.1,0,.12-.13,0-.14a29.62,29.62,0,0,0-4.8-.2,20.11,20.11,0,0,0-4,.52,21.45,21.45,0,0,0-2.9-.33c-5.53-.24-11.56,1.83-15,6.38s-4.07,10.62-4.67,16.12A122.58,122.58,0,0,0,67.65,332c0,.45.67.37.69-.06.21-6.52.44-13,1.06-19.54.29-3,.61-6,1.11-9a26.54,26.54,0,0,1,2.19-7.42,13.59,13.59,0,0,1,5.35-5.76,18,18,0,0,1,7.59-2.34,20.56,20.56,0,0,1,7.12.67,4.75,4.75,0,0,0,0,1.41,7.93,7.93,0,0,0,.35,1.73,8.71,8.71,0,0,0,.66,1.54c.29.54.66,1,1,1.55,0,.08.18,0,.12-.09a7.3,7.3,0,0,1-1.23-3.13,14.43,14.43,0,0,1-.19-1.61c0-.41,0-.82,0-1.23a21.1,21.1,0,0,1,6.93,3.66c.38.31.75.63,1.12,1a7.81,7.81,0,0,0-1.35,1.65,15.93,15.93,0,0,0-1.41,2.52A21.35,21.35,0,0,0,97.25,303c0,.1.13.13.14,0a16,16,0,0,1,1.81-5.23,21.09,21.09,0,0,1,1.41-2.32c.26-.38.54-.76.83-1.13.15-.19.32-.39.47-.61a21.79,21.79,0,0,1,4.5,6.34h0a10.89,10.89,0,0,0-1.86,2.68,24.68,24.68,0,0,0-1.48,3.17,53.88,53.88,0,0,0-1.9,6.47.08.08,0,1,0,.15,0,27.29,27.29,0,0,1,2.25-6.37c.48-1,1-2,1.51-2.94a28.49,28.49,0,0,0,1.49-2.78,20.63,20.63,0,0,1,1.81,7.35c0,.1.16.09.15,0a25.73,25.73,0,0,0-3.56-11.28,30.94,30.94,0,0,1,2.87,1.32,16.17,16.17,0,0,1,3.3,2.31C111.19,300.09,111.29,300,111.21,299.91Z" style="fill:#263238"></path><path d="M99.57,300.49c-.47,1.57-1.07,3.09-1.5,4.67a18,18,0,0,0-.7,4.67s.07,0,.07,0a45.69,45.69,0,0,1,2.28-9.29C99.76,300.44,99.61,300.39,99.57,300.49Z" style="fill:#263238"></path><path d="M109.63,296.61a8.9,8.9,0,0,0-2.11-1.5,13.75,13.75,0,0,0-2.43-.86c-.09,0-.12.12,0,.14a9.63,9.63,0,0,1,2.35,1,17,17,0,0,1,2.15,1.32S109.67,296.65,109.63,296.61Z" style="fill:#263238"></path><path d="M82.68,277.67S84.2,259.11,98,253.1c11.52-5,18.12,7.92,10,15.85C101.38,275.36,90.81,272.47,82.68,277.67Z" style="fill:#7E57C2"></path><path d="M105.42,256.69a58.35,58.35,0,0,0-6.14,2.91,44.12,44.12,0,0,0-4.76,3.16c.23-.47.43-1,.66-1.42a23.91,23.91,0,0,1,1.17-2.1,19.83,19.83,0,0,1,3-3.85c.07-.06,0-.17-.11-.1a31.4,31.4,0,0,0-3.2,3.72,23,23,0,0,0-1.31,2.1,8.63,8.63,0,0,0-.93,2.14l-.15.11a45.67,45.67,0,0,0-6.59,6.45c0-.18.07-.36.12-.53.26-.91.54-1.8.84-2.7a22.88,22.88,0,0,1,2.49-5.41.07.07,0,1,0-.13-.07,42.2,42.2,0,0,0-2.89,5.28,20.16,20.16,0,0,0-1,2.74,11.76,11.76,0,0,0-.45,1.86c-.6.76-1.2,1.53-1.75,2.33-5.93,8.43-8.9,18.63-9.61,28.84a87.07,87.07,0,0,0-.16,9.14,57.47,57.47,0,0,0,.81,9.18.17.17,0,0,0,.33-.05c-.06-2.68-.34-5.36-.39-8a77.42,77.42,0,0,1,.26-8.06,75.14,75.14,0,0,1,3-15.79,56.61,56.61,0,0,1,7-14.85c.58-.12,1.16-.28,1.73-.42l2.07-.55a21,21,0,0,0,3.84-1.41c.09,0,0-.18-.08-.13a12.22,12.22,0,0,1-3.9,1.35c-1.08.21-2.2.35-3.28.6a52.67,52.67,0,0,1,3.21-4.22,23.85,23.85,0,0,0,7.85-.58,33.38,33.38,0,0,0,4-1.25c1.38-.54,2.69-1.22,4.05-1.79.1,0,0-.19-.06-.14a23.17,23.17,0,0,1-8,2.61,48.91,48.91,0,0,1-7.44.61c1-1.12,2-2.22,3.07-3.25a36.24,36.24,0,0,1,12.7-8.27C105.56,256.8,105.51,256.65,105.42,256.69Z" style="fill:#263238"></path><path d="M94.19,256.75a20.73,20.73,0,0,0-1.69,2.47,13.76,13.76,0,0,0-1.22,2.88s0,0,.06,0c.46-.91.85-1.85,1.31-2.76a13.94,13.94,0,0,1,1.65-2.51C94.36,256.78,94.25,256.67,94.19,256.75Z" style="fill:#263238"></path><path d="M107,262.93a14.34,14.34,0,0,1-2.83,1.18,25.43,25.43,0,0,1-2.88.77s0,.09,0,.08a13.88,13.88,0,0,0,3-.65,25.81,25.81,0,0,0,2.79-1.25C107.19,263,107.11,262.88,107,262.93Z" style="fill:#263238"></path><path d="M72,274.33c-.08.81-2.09-6.74-13.75-13.43C47.6,254.82,35,239,45.34,229,53.73,221,75.82,238.53,72,274.33Z" style="fill:#7E57C2"></path><path d="M80,317.57a204.48,204.48,0,0,0-1.85-23.46,105.8,105.8,0,0,0-4.93-21c-.87-2.46-1.86-4.87-2.93-7.25a17,17,0,0,0,0-2.77c-.06-1.19-.17-2.38-.28-3.56s-.22-2.37-.37-3.55-.39-2.36-.44-3.54a.07.07,0,1,0-.14,0,24.86,24.86,0,0,1,.41,3.76c.09,1.14.16,2.29.19,3.44s0,2.29,0,3.44c0,.41,0,.85,0,1.3q-1.65-3.48-3.55-6.83c.79-4.84-.24-9.89-1.22-14.62,0-.1-.17,0-.15,0a41,41,0,0,1,.77,7.5c0,2,0,4-.06,6-.28-.48-.55-.95-.84-1.42q-2.27-3.72-4.85-7.25a11.34,11.34,0,0,0-.11-3.44,27,27,0,0,0-.85-3.77,38.32,38.32,0,0,0-1.29-3.64c-.5-1.23-1.18-2.39-1.67-3.62a.07.07,0,1,0-.13.06A18.39,18.39,0,0,1,57.1,237a32.84,32.84,0,0,1,.95,3.63c.25,1.23.45,2.46.62,3.7.12.82.19,1.67.33,2.5a89.24,89.24,0,0,0-8.17-9.51c-.07-.07-.17,0-.1.11A108.24,108.24,0,0,1,62.59,253.6l.38.65c-.65-.4-1.38-.72-2-1.06l-3.4-1.87c-1.11-.59-2.21-1.2-3.31-1.81-.56-.31-1.12-.64-1.7-.93a13.67,13.67,0,0,1-2-1.1c-.08-.06-.18.07-.08.12,1.12.62,2.11,1.54,3.2,2.23s2.19,1.37,3.33,2c2.07,1.16,4.32,2,6.37,3.19,1.41,2.47,2.72,5,3.92,7.61q-1.86-1.19-3.79-2.27c-.82-.46-1.65-.92-2.49-1.36a12.45,12.45,0,0,1-2.35-1.42c-.08-.06-.18,0-.11.11a22.24,22.24,0,0,0,4.49,3.12c1.5.88,3,1.72,4.57,2.49C68.9,266,70,268.82,71,271.65c4.91,13.9,6.71,28.67,7.57,43.33.26,4.37.39,8.74.45,13.12s-.18,8.73-.17,13.1c0,.13.21.16.23,0,.53-3.88.62-7.82.79-11.72S80.07,321.54,80,317.57Z" style="fill:#263238"></path><path d="M58.78,254.61a56.85,56.85,0,0,1-6.2-3.21,65.49,65.49,0,0,1-5.88-3.73s-.07,0,0,.05a49.35,49.35,0,0,0,5.65,4,57.77,57.77,0,0,0,6.4,3.06C58.8,254.78,58.87,254.65,58.78,254.61Z" style="fill:#263238"></path><path d="M62.17,238.89c-.18-.68-.39-1.34-.62-2a.06.06,0,0,0,0-.07c-.15-.38-.3-.75-.46-1.12a.46.46,0,0,0,0-.14l-.09-.21s0,0,0,0,.08.26.12.38a1.8,1.8,0,0,0,.06.22,54.81,54.81,0,0,1,1.73,7.92.07.07,0,0,0,.14,0A27,27,0,0,0,62.17,238.89Z" style="fill:#263238"></path><polygon points="92.31 320.39 91.48 330.26 88.93 360.36 61.63 360.36 59.08 330.26 58.25 320.39 92.31 320.39" style="fill:#37474f"></polygon><polygon points="92.31 320.39 91.48 330.26 59.08 330.26 58.25 320.39 92.31 320.39" style="fill:#263238"></polygon><rect x="55.57" y="316.43" width="39.42" height="9.47" style="fill:#37474f"></rect></g><g id="freepik--Floor--inject-41"><polygon points="28.43 360.45 83.82 360.21 139.22 360.12 250 359.95 360.78 360.12 416.18 360.21 471.57 360.45 416.18 360.7 360.78 360.79 250 360.95 139.22 360.78 83.82 360.69 28.43 360.45" style="fill:#263238"></polygon></g><g id="freepik--Characters--inject-41"><path d="M309.29,162.06c-2.92-8.74-11.76-14.13-21.71-16s-22.81-1.65-30,13.3c-5.86,12.14-6.9,25.86-12.58,39.74s-35,41.46-16.5,68.17c16.64,24,68,28.86,81.79-1.15,10.9-23.8-8.82-57.81-8-68.64S312.49,171.64,309.29,162.06Z" style="fill:#263238"></path><path d="M307.9,177.41c-2.62,7-4.45,14.43-4.22,22.15a21.68,21.68,0,0,0,1,5.75c.56,1.85,1.21,3.65,1.85,5.44,1.34,3.55,2.66,7.09,3.8,10.66a77.2,77.2,0,0,1,4.06,21.91,59,59,0,0,1-3.71,21.86,51,51,0,0,0,3.91-10.57A55.27,55.27,0,0,0,316,243.35a68.41,68.41,0,0,0-3.64-22.52c-1.18-3.63-2.56-7.2-3.92-10.73s-2.82-7-3.09-10.62a47.82,47.82,0,0,1,.42-11.07A92.35,92.35,0,0,1,307.9,177.41Z" style="fill:#263238"></path><path d="M254,170.11c-2.68,7.15-5.09,14.39-8.11,21.34a91.81,91.81,0,0,1-5.1,10.1c-1.89,3.19-4.29,6.2-6.53,9.3s-4.42,6.3-6.41,9.6a66.44,66.44,0,0,0-5,10.45,41.15,41.15,0,0,0-2.27,11.37,28.62,28.62,0,0,0,2.29,11.34,30.53,30.53,0,0,1-1.24-11.27,40,40,0,0,1,2.77-10.86c2.92-6.93,7.13-13.26,11.63-19.4,2.19-3.12,4.59-6.12,6.54-9.53a74.7,74.7,0,0,0,4.86-10.48A187,187,0,0,0,254,170.11Z" style="fill:#263238"></path><path d="M263.91,219.77c11.36,24.46,31.69,51.33,45.36,57.54,9,4.11,50.37-10.55,67.08-19.41,5.49-2.91-9.26-32.66-16.42-36.6-3.07-1.7-39.9,23.38-43.57,21-6.37-4.17-20.63-16-39.73-29.84C263.77,203.15,257.57,206.14,263.91,219.77Z" style="fill:#d3766a"></path><path d="M285.88,259.46l23.2-25s-19.51-16.74-32.95-24.6-21.84-4.35-11.19,15.77A279.85,279.85,0,0,0,285.88,259.46Z" style="fill:#7E57C2"></path><path d="M303.47,231.58q-5.16,4.72-10.09,9.69c-1.62,1.64-3.26,3.25-4.85,4.91s-3.15,3.56-4.8,5.27c-.11.12.06.32.18.2,1.64-1.6,3.4-3.09,5-4.68s3.35-3.35,5-5q4.93-5,9.63-10.2C303.7,231.64,303.57,231.49,303.47,231.58Z" style="fill:#263238"></path><path d="M303.29,240.69l-17.41,18.77a280.58,280.58,0,0,1-20.95-33.83c-7.11-13.45-5.72-19.48,0-19.64Z" style="opacity:0.1"></path><path d="M301.49,228.18l-22.07,21.94-1.35-2.07,21.52-21.39Zm3.28,2.68-23,22.83,1.38,2,23.45-23.31Zm-19.08,28.33.19.27,5.51-5.94Z" style="opacity:0.1"></path><path d="M307.7,235.94c1.58,1.06,3.15,2.15,4.75,3.18.79.52,1.58,1,2.39,1.54a13.07,13.07,0,0,0,2.42,1.26,3.45,3.45,0,0,0,1.21-.2c.44-.12.89-.27,1.33-.42.88-.32,1.75-.68,2.62-1.06,1.73-.75,3.44-1.58,5.14-2.44,3.41-1.65,6.75-3.48,10.08-5.32,1.66-.91,3.32-1.85,5-2.81l4.95-2.85c-1.53,1.13-3.11,2.2-4.69,3.27s-3.21,2.06-4.84,3.06c-3.26,2-6.62,3.81-10,5.55-1.72.84-3.45,1.64-5.22,2.38-.89.37-1.78.72-2.7,1-.46.15-.92.31-1.4.42a3.88,3.88,0,0,1-1.6.14,12.8,12.8,0,0,1-2.58-1.48c-.79-.54-1.57-1.1-2.33-1.67C310.66,238.35,309.15,237.18,307.7,235.94Z" style="fill:#263238"></path><path d="M100,417.48c-.29,3.82,10.63,4.91,15.18,2.44,1.45-.79,5.54-4.24,10.51-8.63,10.94-9.68,26.07-23.84,26.07-23.84l11.21,5,54.75,18.23L240.78,351s-26.5-11.21-51.69-21.24c-3.87-1.54-7.69-3-11.41-4.48L177,325c-16.91-6.51-30.91-11.43-32.35-10.41C140.78,317.26,100.25,413.63,100,417.48Z" style="fill:#d3766a"></path><path d="M100,417.47c-.29,3.83,10.62,4.92,15.18,2.46,1.44-.79,5.54-4.25,10.5-8.65,11-9.66,26.08-23.83,26.08-23.83l11.21,5,1.83.6,25.15-63-.81-.33-11.42-4.47c-.22-.1-.46-.19-.68-.27-16.9-6.5-30.91-11.43-32.36-10.42C140.77,317.26,100.25,413.64,100,417.47Z" style="fill:#7E57C2"></path><path d="M177.35,361.52l-12.6,31.57-1.82-.6-11.21-5s-15.13,14.17-26.08,23.83c-5,4.4-9.06,7.86-10.5,8.65-4.56,2.46-15.47,1.37-15.18-2.46.23-3.07,26.3-65.57,38.64-91.67Z" style="opacity:0.1"></path><path d="M126.51,403.48a16.76,16.76,0,0,0-2.74.12,16.32,16.32,0,0,0-.27-1.84,16.84,16.84,0,0,0-.53-2,25.89,25.89,0,0,0,3-2.05c.11-.09,0-.25-.15-.19-1,.52-2,1.09-3,1.69a21,21,0,0,0-4.64-7.33,17.08,17.08,0,0,0-2.33-2c-.86-.63-1.82-1-2.71-1.6-.08-.05-.16.08-.07.14a11.29,11.29,0,0,1,2,1.8c.61.64,1.21,1.27,1.78,1.95a25.55,25.55,0,0,1,2.81,4.24,24.42,24.42,0,0,1,1.58,3.77l-.3.19-.78.51c-.28.2-.52.4-.79.61-.06.05,0,.17.07.14.28-.11.55-.2.83-.34l.89-.44.24-.14a26.49,26.49,0,0,1,.72,3.05c-.65.08-1.3.16-1.94.27-.09,0-.06.16,0,.15.65,0,1.31,0,2-.07a25.88,25.88,0,0,1,.31,3c0,1.12,0,2.24,0,3.35a20.3,20.3,0,0,1-.62,3.45c0,.08.11.14.15,0a19.14,19.14,0,0,0,1.87-10,17.58,17.58,0,0,0,2.73-.37A.09.09,0,0,0,126.51,403.48Z" style="fill:#263238"></path><path d="M169.87,334a22.68,22.68,0,0,0-2.74-.25c.17-.2.35-.39.51-.6a26.52,26.52,0,0,0,4.14-7.63c.06-.16-.18-.24-.26-.11a36.67,36.67,0,0,1-5.88,7.71c-.09-.22-.18-.44-.26-.67s-.18-.51-.26-.78a3.75,3.75,0,0,0-.29-.79.08.08,0,0,0-.15.05,3,3,0,0,0,.14.83c.07.27.13.54.2.8s.17.61.26.92l-.18.15-2.72-.16a.08.08,0,0,0,0,.16c.79.13,1.57.24,2.36.34a26,26,0,0,1-2.85,2.27,22.4,22.4,0,0,1-10.07,3.51c-.16-.68-.33-1.36-.48-2,0-.1-.16-.05-.15.05.13.66.21,1.34.3,2a31.35,31.35,0,0,1-5.48.08,40.36,40.36,0,0,1-9.59-1.9c-.09,0-.14.11-.06.16a26.21,26.21,0,0,0,8.56,3,30.18,30.18,0,0,0,6.78.3,21.5,21.5,0,0,0,.42,2.29.16.16,0,0,0,.31-.05,13.75,13.75,0,0,0-.27-2.29c.6-.05,1.2-.1,1.79-.19a20.76,20.76,0,0,0,8.12-2.91,21.65,21.65,0,0,0,3.83-3.13l.33.81c.2.44.37,1.1.8,1.36.07.05.15,0,.16-.1a1.48,1.48,0,0,0-.21-.76c-.12-.27-.24-.53-.35-.8s-.23-.59-.35-.88c.17-.18.33-.38.49-.57a16,16,0,0,0,3.09,0C170,334.18,170,334,169.87,334Z" style="fill:#263238"></path><path d="M183.61,330c-1.77,3.65-3.3,7.43-4.93,11.15s-3.12,7.33-4.65,11q-4.62,11.17-9.08,22.44c-1.67,4.2-3.31,8.41-4.75,12.69,0,.08.11.13.15.05,3.5-7.24,6.47-14.74,9.56-22.17s6.18-14.83,9-22.33c1.62-4.25,3.37-8.48,4.83-12.79C183.8,329.93,183.65,329.87,183.61,330Z" style="fill:#263238"></path><path d="M172.89,403.54s119,27.33,162.81,19.44c21-3.78,36.08-30.74,26-51.4-9.4-19.27-66.85-38.82-83.08-50.16-5.12-3.55-4.57-17.64-4.57-17.64l-42.64-.57s-15.2,24.14-8.76,35.9a3.75,3.75,0,0,0,.37.58l-19.24-7.31Z" style="fill:#37474f"></path><path d="M199.24,371.35C204,361,209.19,351,214,340.7c.09-.2.41-.09.32.11-4.55,10.35-8.76,20.84-13.5,31.11S191,392.33,186,402.53c-.13.26-.56.12-.44-.16C190.14,392,194.52,381.63,199.24,371.35Z" style="fill:#263238"></path><path d="M222.74,340.19c2.94,1.71,5.74,3.7,8.6,5.54s5.65,3.61,8.53,5.33c5.82,3.46,11.78,6.69,17.8,9.77A304.63,304.63,0,0,0,295.24,377c7.18,2.52,14.43,5,21.82,6.82.16,0,.09.28-.08.25-5.37-1.29-10.75-2.56-16.06-4.06,2.82,1.78,5.58,3.63,8.39,5.43a.13.13,0,0,1-.14.22c-3.06-1.85-6.17-3.63-9.21-5.52a.29.29,0,0,1-.09-.43l-2.72-.79q-9.87-3.06-19.46-6.91a238.77,238.77,0,0,1-36.39-18.4q-4.91-3-9.68-6.25a88.65,88.65,0,0,1-9.19-6.8C222.22,340.38,222.51,340.05,222.74,340.19Z" style="fill:#263238"></path><path d="M342.3,221.13a16,16,0,0,1-5.52.92,24.79,24.79,0,0,1-15.72-6.28,9.29,9.29,0,0,1-1.73-2,20,20,0,0,1-2.24-5.42,14.26,14.26,0,0,1,4-14.06,9.63,9.63,0,0,1,8.46-2.87h0a8.68,8.68,0,0,1,1.86.58,9,9,0,0,1,.89.43,13,13,0,0,1,5.87,7.38c1.59,4.56,1.54,9.6,3.12,12.18,1.74,2.83,5.09,3.11,6.1,3.7C350.22,217.3,344.79,220.24,342.3,221.13Z" style="fill:#263238"></path><path d="M336.79,223c-6.63-.3-13.12-1.61-16.83-7.64a22.35,22.35,0,0,1-2.87-7,14.36,14.36,0,0,1,1.41-10.43c.11-.19.45,0,.36.16-2.47,5.65-1.39,11.43,1.54,16.67.21.37.43.73.66,1.06,3.59,5.32,9.52,6.47,15.73,7.07C336.86,222.85,336.86,223,336.79,223Z" style="fill:#263238"></path><path d="M346.31,214.2c-4.5-1.13-5.41-6.22-6.22-10.09a28.74,28.74,0,0,0-1.4-4.72,22.24,22.24,0,0,0-1.93-3.76,9.23,9.23,0,0,0-5.31-3.67,8.45,8.45,0,0,0-3.56-.22s-.06-.06,0-.07a6.44,6.44,0,0,1,1.7-.29h0a10.4,10.4,0,0,1,5,1.25c2.2,1.16,3.46,3.51,4.42,5.71.1.21.18.42.27.63a47.28,47.28,0,0,1,1.89,7.83c.64,3.11,1.93,6.16,5.13,7.3C346.4,214.12,346.37,214.21,346.31,214.2Z" style="fill:#263238"></path><path d="M316.73,201.69c.95,1,5.18,0,7.91-2.31,3.08-2.62,4.53-7.13,4.26-7.94s-3.69-.92-3.69-.92-1.88,4.34-3.9,5.53a20.81,20.81,0,0,1-5.21,1.86Z" style="fill:#7E57C2"></path><path d="M341.3,223.53c-4.84,15.78-15.75,29.81-24.46,38.74-3.49,3.58-32.85.71-42.73-4.14-3.24-1.59,2.15-21.32,6.4-23.46,2.89-1.45,27.21,8.15,29,6.37,3.36-3.26,12-12.35,22.89-20.72C339.75,214.68,343.86,215.17,341.3,223.53Z" style="fill:#d3766a"></path><path d="M283.1,234.64c-8-2.56-17.74-6.22-27-4.15A4.71,4.71,0,0,0,253.5,232c-4.14.86-5,3.07-5,3.07-3.62,2-4.17,4.37-4.17,4.37s-4.85,1.06-4.7,4.1c.16,3.41,6.95,1.26,11.41,2.35,10.22,2.52,25.54,9.33,28.41,10.35Z" style="fill:#d3766a"></path><path d="M263.6,241.06a68,68,0,0,0-9.07-1.7,68.09,68.09,0,0,0-10.1.21.09.09,0,0,1,0-.17,35.9,35.9,0,0,1,19.23,1.52C263.77,241,263.75,241.09,263.6,241.06Z" style="fill:#263238"></path><path d="M266,235.11c-3-.5-8.21-1.34-17.49.12,0,0-.05,0,0-.06A32.07,32.07,0,0,1,266,235C266.22,235,266.21,235.14,266,235.11Z" style="fill:#263238"></path><path d="M267.25,231.89a50.72,50.72,0,0,0-13.74.18s0,0,0,0c6-1.33,8.34-1.13,13.8-.3C267.49,231.75,267.45,231.92,267.25,231.89Z" style="fill:#263238"></path><path d="M263.18,249.74c1.2.86.76,1.49-1.86,1.62s-13.08-1.6-13.37,2.1,14.47,5.21,18.85,5.38a27.15,27.15,0,0,0,12.67-2.56C276.68,255.27,268.63,251.79,263.18,249.74Z" style="fill:#d3766a"></path><path d="M318.05,232.73c-1,1.22-2,2.38-3.11,3.53s-2.16,2.26-3.28,3.36c-.58.54-1.11,1.07-1.77,1.6a1.17,1.17,0,0,1-.7.27,3.43,3.43,0,0,1-.64,0,11.7,11.7,0,0,1-1.19-.13,31,31,0,0,1-4.58-1.14c1.56.19,3.11.43,4.65.56q.57,0,1.14.06a2.93,2.93,0,0,0,.53,0,.58.58,0,0,0,.37-.15c.54-.47,1.12-1,1.67-1.58,1.13-1.08,2.24-2.17,3.4-3.23S316.84,233.73,318.05,232.73Z" style="fill:#263238"></path><path d="M316.66,232l16.28,15.19s8.73-15.79,10.05-25.65-3.48-9.09-9.33-4.72S316.66,232,316.66,232Z" style="fill:#455a64"></path><path d="M320.44,230.48c-.11-.1-.21-.06-.11,0a148.77,148.77,0,0,0,13.72,12.69s.08,0,.05-.06C332.12,240.8,321.59,231.6,320.44,230.48Z" style="fill:#263238"></path><path d="M343,221.58c-1.32,9.87-10,25.65-10,25.65L321,236.09l21.52-21C343.2,216.35,343.41,218.42,343,221.58Z" style="fill:#263238"></path><path d="M377,220.48a16.19,16.19,0,0,1-5.22,2,24.87,24.87,0,0,1-16.67-3,9.72,9.72,0,0,1-2.1-1.66,20,20,0,0,1-3.28-4.86,14.24,14.24,0,0,1,1.13-14.58,9.65,9.65,0,0,1,7.72-4.5h0a8.57,8.57,0,0,1,1.94.19,8.48,8.48,0,0,1,1,.25,12.87,12.87,0,0,1,7.22,6.05c2.48,4.15,3.43,9.1,5.5,11.31,2.27,2.43,5.61,2,6.71,2.41C383.94,215.15,379.2,219.11,377,220.48Z" style="fill:#263238"></path><path d="M371.91,223.37c-6.56,1-13.18,1-18-4.12a22.51,22.51,0,0,1-4.21-6.29,14.42,14.42,0,0,1-.71-10.5c.08-.21.44-.14.39.09-1.29,6,.92,11.48,4.85,16,.28.32.56.63.85.91,4.58,4.49,10.63,4.43,16.83,3.78C372,223.26,372,223.36,371.91,223.37Z" style="fill:#263238"></path><path d="M379.49,212.89c-4.64-.21-6.54-5-8.11-8.64a29.13,29.13,0,0,0-2.32-4.34,21.53,21.53,0,0,0-2.65-3.3,9.23,9.23,0,0,0-5.93-2.54,8.4,8.4,0,0,0-3.53.5s-.07,0,0-.06a6.27,6.27,0,0,1,1.61-.63h0a10.46,10.46,0,0,1,5.19.21c2.39.7,4.09,2.75,5.48,4.71.13.19.26.38.38.57a46.65,46.65,0,0,1,3.43,7.29c1.24,2.92,3.11,5.65,6.48,6.13A.05.05,0,0,1,379.49,212.89Z" style="fill:#263238"></path><path d="M348,206.55c1.13.8,5.07-1,7.28-3.84,2.5-3.19,3-7.9,2.59-8.64s-3.79-.16-3.79-.16-1,4.62-2.72,6.2a20.81,20.81,0,0,1-4.74,2.86Z" style="fill:#7E57C2"></path><path d="M362.17,402.53h-33s-16-52.57-13.86-67.65c2.94-20.33,10.25-72,10.25-72h36.63S350,318.08,348.41,336.93C347.64,346.14,362.17,402.53,362.17,402.53Z" style="fill:#d3766a"></path><path d="M307.68,432.29c1.78.57,52.68-.11,54.61-1.36.73-.47,1.58-9.47,1.58-18.45,0-4.57-7.05-31.59-7.05-31.59l-33,.35,7.89,33.23s-20.39,8.91-22.35,10.51S305.89,431.72,307.68,432.29Z" style="fill:#d3766a"></path><path d="M363.77,418.37c-.26,6.66-.9,12.19-1.48,12.56-1.92,1.25-52.82,1.93-54.61,1.36s-.28-5.71,1.67-7.31c1.06-.86,7.4-3.82,13.06-6.38-6.41,3.31-11.23,6.87,1.5,6.06C335.83,423.9,357.26,419.69,363.77,418.37Z" style="fill:#263238"></path><path d="M322.41,418.6a14.91,14.91,0,0,1,14.89,4.5" style="fill:#263238"></path><path d="M389.18,432.91c1.8-.52,43.63-29.54,44.52-31.65.35-.8-3.52-7.14-8.42-14.67-1-1.62-2.15-3.3-3.28-5a268.65,268.65,0,0,0-16.63-21.92l-28.23,19.78,17.59,20.94,3.53,4.82s-11,18.27-11.78,20.7S387.38,433.43,389.18,432.91Z" style="fill:#d3766a"></path><path d="M433.71,401.26c-.9,2.11-42.72,31.13-44.52,31.65s-3.43-4.58-2.7-7c.46-1.53,5-9.29,8.29-14.86-3.95,6.83-7.18,14,3.76,5.7,9.09-6.91,23.66-21.27,29-26.63C431.32,396,434,400.59,433.71,401.26Z" style="fill:#263238"></path><path d="M394.78,411.06s4.6-3.85,12-1.22" style="fill:#263238"></path><path d="M416.92,374.28,389.7,394.41s-32.61-35.4-36.88-48.77c-5.7-17.87-12-56.76-12-56.76l-4.16-1.32c-5.21-3.29-10.48-20.06-11.08-24.69h48.35s7.05,20.13,3.27,32.58c0,0,8.77,34.51,11.38,39.55C395.37,348.16,416.92,374.28,416.92,374.28Z" style="fill:#d3766a"></path><path d="M378.45,271.08c0,.05-57.21,0-57.63-.34-.21-.16,6-42,12.61-53.15,1.67-2.86,11-7.47,17.48-2.46C364.52,225.69,378.66,270.79,378.45,271.08Z" style="fill:#455a64"></path><path d="M320.82,270.74,306.57,325.8s15.76,8.58,34.08,10.38,48.58-10.88,48.58-10.88l-10.78-54.22Z" style="fill:#455a64"></path><path d="M388.52,321.73c-11.08,3.8-31.49,10.08-45.22,10.08H343c-13.18-.09-27.53-5.61-35.58-9.24l.51-2c7.86,3.55,22.25,9.14,35.09,9.23h.29c13.38,0,33.88-6.33,44.82-10.08Zm-1.28-6.45c-11.13,3.77-30.91,9.78-43.94,9.78H343c-12.26-.08-25.93-5.18-34-8.73l-.51,2c8.21,3.62,21.88,8.67,34.48,8.75h.31c13.37,0,33.07-6,44.33-9.78Z" style="fill:#fff"></path><path d="M376.45,269.18a67.36,67.36,0,0,1-20.7,6.37,69.26,69.26,0,0,1-21.6-.55,74.65,74.65,0,0,1-11.69-3.23.1.1,0,0,0-.08.18,55.09,55.09,0,0,0,21.11,5.24,60.31,60.31,0,0,0,21.89-2.77,54.83,54.83,0,0,0,11.23-5C376.79,269.33,376.63,269.09,376.45,269.18Z" style="fill:#263238"></path><path d="M343.9,211.12c5.21.68,4.81,6.53,2.94,11.21s-5.1,8.08-8.58,7.78-2.76-5.68-2.76-5.68-2.59,4-4.57,3.08S335.76,210.06,343.9,211.12Z" style="fill:#fff"></path><path d="M348,215.12c-.33,1.23-6.51,9.09-12.17,8.65-1.84-.15-1.48-10.25-1.48-10.25l-.14-.75-2-10.53,14.33-8.47S348.08,214.59,348,215.12Z" style="fill:#d3766a"></path><path d="M332.15,202.25l2,10.51.14.76s-.06,1.83,0,3.94c7.77-.9,11.49-6.6,13.16-10.55-.43-6-1-13.14-1-13.14Z" style="fill:#263238"></path><path d="M313.4,184.85c-6.49,22,6,28.39,10.71,29.78,4.31,1.27,19.15,5,27.88-16.2s.54-31.2-9.17-34.61S319.88,162.84,313.4,184.85Z" style="fill:#d3766a"></path><path d="M316.59,184.23a12.05,12.05,0,0,0,1.59,0,2.6,2.6,0,0,0,1.62-.29.81.81,0,0,0,.21-1,2,2,0,0,0-1.85-.89,2.93,2.93,0,0,0-2.05.62A.87.87,0,0,0,316.59,184.23Z" style="fill:#263238"></path><path d="M331.66,188.31a14.44,14.44,0,0,1-1.44-.66,2.51,2.51,0,0,1-1.35-.94.83.83,0,0,1,.21-1,2,2,0,0,1,2.06,0,3,3,0,0,1,1.59,1.43A.87.87,0,0,1,331.66,188.31Z" style="fill:#263238"></path><path d="M325.36,204c-.43.31-.87.75-1.44.7a4.05,4.05,0,0,1-1.6-.64c-.05,0-.1,0-.08.06a2.11,2.11,0,0,0,1.83,1.15,1.66,1.66,0,0,0,1.43-1.17C325.53,204,325.42,204,325.36,204Z" style="fill:#263238"></path><path d="M320.17,197.13s-.81,2.21-1,3.29c0,.1.22.21.58.31h.05a5.25,5.25,0,0,0,5.38-.84.11.11,0,0,0-.13-.18,7.89,7.89,0,0,1-5,.32c0-.31,1.52-3.78,1.34-3.79-.74,0-2.07,0-2.56,0,.49-1.45,2.09-5.5,3-8.14.06-.17-.19-.28-.26-.13a72.62,72.62,0,0,0-4,9C317.44,197.2,319.7,197.22,320.17,197.13Z" style="fill:#263238"></path><path d="M330,192.83a1.76,1.76,0,0,0,.31.46,1,1,0,0,0,.78.35c.92,0,1.41-.9,1.56-1.83,0-.06,0-.11-.06-.06-.43.43-.92.87-1.44.73a1.87,1.87,0,0,1-.85-.74A4.73,4.73,0,0,1,330,192.83Z" style="fill:#263238"></path><path d="M330.5,192.64a2.47,2.47,0,0,0-.35-1.22,1.7,1.7,0,0,0-1.15-.73,1.51,1.51,0,0,0-1.31.45,2.55,2.55,0,0,0-.62,1.07,3.76,3.76,0,0,0-.16.74,3.33,3.33,0,0,0,.1,1.54,5.6,5.6,0,0,1,.23-1.11,6,6,0,0,1,.37-.95c.31-.62.77-1.11,1.29-1s.89.58,1,1.27a11,11,0,0,1,.1,2.17A5,5,0,0,0,330.5,192.64Z" style="fill:#263238"></path><path d="M316.1,189.41a1.23,1.23,0,0,1-.46.25,1,1,0,0,1-.82-.06c-.78-.44-.77-1.46-.47-2.33,0-.06.06-.09.08,0,.16.58.37,1.2.87,1.33a1.81,1.81,0,0,0,1.06-.24A5.3,5.3,0,0,0,316.1,189.41Z" style="fill:#263238"></path><path d="M315.89,189a2.25,2.25,0,0,1,.84-.9A1.62,1.62,0,0,1,318,188a1.53,1.53,0,0,1,.91,1,2.81,2.81,0,0,1,0,1.22,5.44,5.44,0,0,1-.2.72,3.18,3.18,0,0,1-.79,1.29,4.65,4.65,0,0,0,.31-1.07,7,7,0,0,0,.12-1c0-.68-.15-1.32-.64-1.47s-1,.09-1.43.64a10.84,10.84,0,0,0-1.07,1.84A4.94,4.94,0,0,1,315.89,189Z" style="fill:#263238"></path><path d="M349.89,203.18a9.74,9.74,0,0,1-3.36-9,24.64,24.64,0,0,1-7.95-10.41c0,.51.31,4.21.5,6.1-13.68-6-15.43-18.24-15.43-18.24-5.78,3.73-7.44,6.58-8.47,8,0,0,2.05-9.07,8-14.12,7.3-6.18,14.52-3.09,14.52-3.09A20.13,20.13,0,0,1,356,173.09C362.83,185.61,349.89,203.18,349.89,203.18Z" style="fill:#263238"></path><path d="M328.77,185a26.25,26.25,0,0,0,6.69,4.42s0,0,0,0a22.32,22.32,0,0,1-11-14,15.84,15.84,0,0,1-.56-6.05.12.12,0,0,0-.23,0,18.5,18.5,0,0,0-.24,6.07,16,16,0,0,0,2,5.59,17.79,17.79,0,0,0,3.31,4.07Z" style="fill:#263238"></path><path d="M348,199.09s6.33-6,9.16-3.63-2.92,11.83-6.94,12.46a3.88,3.88,0,0,1-4.69-3.08Z" style="fill:#d3766a"></path><path d="M355.44,198.13c.06,0,.05.09,0,.1-2.84.53-4.72,2.68-6.19,5a2.14,2.14,0,0,1,3.25.06c.06.06,0,.16-.09.13a2.4,2.4,0,0,0-2.75.29,12,12,0,0,0-1.65,1.83c-.17.21-.57,0-.42-.25l0-.06C348.23,201.89,351.78,197.73,355.44,198.13Z" style="fill:#263238"></path><path d="M66.28,432.1C66,435.92,76.9,437,81.46,434.54c1.44-.79,5.53-4.24,10.51-8.63C102.9,416.23,118,402.07,118,402.07l11.2,5,53.13,18.17,24.72-59.69s-26.49-11.2-51.68-21.24c-3.87-1.54-7.69-3-11.41-4.48l-.69-.27c-16.9-6.5-30.91-11.42-32.34-10.41C107.1,331.88,66.57,428.26,66.28,432.1Z" style="fill:#d3766a"></path><path d="M66.28,432.1c-.29,3.82,10.63,4.92,15.18,2.44,1.45-.79,5.54-4.25,10.51-8.63,10.93-9.68,26.08-23.84,26.08-23.84l11.19,5.05,1.49.52,26.12-62.72-1.45-.57c-3.86-1.54-7.68-3-11.39-4.48-.24-.09-.47-.18-.69-.28-16.92-6.5-30.91-11.41-32.36-10.4C107.1,331.87,66.57,428.25,66.28,432.1Z" style="fill:#7E57C2"></path><path d="M89.4,416.69a18.59,18.59,0,0,0-2.52-6.21c.52-.32,1-.64,1.54-1,.15-.1,0-.31-.15-.24-.56.26-1.1.54-1.63.84a23.59,23.59,0,0,0-2.59-3.24,16.56,16.56,0,0,0-2.34-2c-.85-.62-1.82-1-2.7-1.6-.09-.05-.16.09-.08.14a11.33,11.33,0,0,1,2,1.8c.61.64,1.22,1.27,1.78,1.95a24.73,24.73,0,0,1,2.54,3.78l-.81.52-.6.37a2.24,2.24,0,0,0-.58.43c-.06.06,0,.14.08.13a2.45,2.45,0,0,0,.66-.3l.62-.33.85-.44a.41.41,0,0,1,.05.09,25.11,25.11,0,0,1,2.82,10.73c0,1.12,0,2.24,0,3.35a21.31,21.31,0,0,1-.61,3.45c0,.08.1.14.14.06A19.33,19.33,0,0,0,89.4,416.69Z" style="fill:#263238"></path><path d="M134.72,347.69l-.56-.5a26.92,26.92,0,0,0,3.52-6.77c0-.16-.19-.24-.27-.11a38.4,38.4,0,0,1-4.33,6.09c-.56-.41-1.14-.81-1.73-1.17-.09-.05-.16.08-.07.14.55.39,1.08.81,1.6,1.24a27,27,0,0,1-5.12,4.53,24.23,24.23,0,0,1-14.12,3.7c.06-.69.14-1.37.21-2.06,0-.12-.18-.13-.21,0a11.84,11.84,0,0,0-.36,2.06c-.46,0-.93,0-1.4-.06-.77-.05-1.55-.14-2.33-.24,0-.14.07-.29.09-.43a12.44,12.44,0,0,0,.22-1.49.15.15,0,0,0-.29-.07,10.79,10.79,0,0,0-.55,1.91,40.28,40.28,0,0,1-6.72-1.58c-.09,0-.14.11-.06.16a26.55,26.55,0,0,0,6.55,2.57c-.18,1-.36,1.93-.5,2.91-.05.14.18.2.23.05.28-.95.52-1.9.76-2.86.5.11,1,.23,1.52.31.8.13,1.62.22,2.43.28a18,18,0,0,0,.11,1.81c0,.1.16.1.16,0,0-.6,0-1.2,0-1.8a29.38,29.38,0,0,0,6.29-.23,20.76,20.76,0,0,0,8.12-2.91,22.29,22.29,0,0,0,5.6-5.1c.14-.18.26-.37.4-.56l.54.46c.33.29.66.59,1,.85.08.06.2-.07.14-.15A7.58,7.58,0,0,0,134.72,347.69Z" style="fill:#263238"></path><path d="M149.5,344.88c-1.77,3.65-3.3,7.43-4.92,11.15s-3.13,7.33-4.65,11q-4.63,11.19-9.08,22.44c-1.67,4.2-3.31,8.41-4.75,12.69,0,.08.1.13.14.05,3.51-7.24,6.48-14.74,9.57-22.17s6.17-14.83,9-22.33c1.62-4.25,3.37-8.47,4.82-12.79C149.69,344.85,149.54,344.79,149.5,344.88Z" style="fill:#263238"></path><path d="M271.4,303.5l-73.32-1.1S182.53,342,189,353.74s74,28.59,74,28.59L170.1,347l-30.89,71.14s112.87,24.6,172.74,18.5c22.47-2.29,36.57-31.64,23.41-54.19-13.85-23.72-64.09-56.18-64.09-56.18Z" style="fill:#37474f"></path><path d="M189.46,354.63c28.42,13,40.14,17.6,69.46,28.42q6.1,2.25,12.23,4.46c4.24,1.52,8.44,3.27,12.78,4.49.21.05.1.4-.1.32-3.74-1.4-7.62-2.4-11.41-3.64s-7.42-2.45-11.11-3.74c-1.59-.55-3.18-1.13-4.77-1.69l1,.66c1.46,1,2.92,2,4.36,3,3,2.09,5.72,4.56,8.84,6.42.19.11,0,.42-.18.29-3-2.1-6.3-3.67-9.34-5.66-1.47-1-2.91-2-4.35-3A30,30,0,0,1,253,382c-4.67-1.67-9.33-3.37-14-5.14-14.6-5.57-42.15-17.54-49.93-21.5C188.71,355.15,189,354.44,189.46,354.63Z" style="fill:#263238"></path><path d="M163.92,385.35c4.74-10.31,10-20.39,14.78-30.65.09-.2.41-.09.32.11-4.56,10.35-8.77,20.84-13.5,31.11s-9.89,20.41-14.87,30.61c-.12.26-.55.12-.43-.16C154.81,406,159.19,395.63,163.92,385.35Z" style="fill:#263238"></path><path d="M272.6,327.05a200.24,200.24,0,0,1,23.15,15.37c7.36,5.45,14.48,11.21,21.27,17.35,3.43,3.1,6.74,6.34,9.93,9.67a74.58,74.58,0,0,1,8.43,10.18A35.76,35.76,0,0,1,341.46,402a38,38,0,0,1-2.91,12.23,45,45,0,0,1-6.79,10.48c-.1.13-.29-.06-.18-.19a28.69,28.69,0,0,0,5.73-10,37.84,37.84,0,0,0-2.86-32.28c-4.5-7.47-11.12-13.66-17.41-19.61a263.47,263.47,0,0,0-20.39-17.36c-4-3.06-8-6-12.1-8.95s-8.24-5.73-12.23-8.79A.27.27,0,0,1,272.6,327.05Z" style="fill:#263238"></path><path d="M255.8,330c4.29-2.08,9-2.89,13.47-3.58a100.33,100.33,0,0,1,13.5-1.12c.12,0,.11.24,0,.26-4.58.56-9.15,1.36-13.69,2.31s-8.8,2.24-13.23,2.73C255.59,330.63,255.59,330.11,255.8,330Z" style="fill:#263238"></path><path d="M201.43,330.87a89.73,89.73,0,0,0,11.68-1.06c3.2-.46,6.49-.93,9.16-2.93,5.19-3.9,7.31-10.76,8.41-16.88,0-.15.28-.11.26,0-.89,6.66-1.19,14.31-7,18.78-2.9,2.22-6.39,2.89-10,3.11a61.8,61.8,0,0,1-12.52-.77A.15.15,0,0,1,201.43,330.87Z" style="fill:#263238"></path><path d="M193.36,341.43A79.15,79.15,0,0,1,195.42,330c.92-3.87,2-7.69,3.24-11.47,1.39-4.3,3-8.52,4.69-12.7.07-.15.31-.08.25.08-2.42,7.07-4.62,14.24-6.47,21.49q-1.37,5.4-2.45,10.85c-.7,3.55-1.06,7.12-.06,10.65a18.7,18.7,0,0,0,5.87,9.14s0,.07,0,0A19.16,19.16,0,0,1,193.36,341.43Z" style="fill:#263238"></path><path d="M180.82,363.18c5,1.29,9.79,3,14.66,4.57s9.73,3.16,14.59,4.78c9.72,3.23,19.4,6.59,29.08,9.93,5.49,1.9,10.95,3.93,16.41,5.92.16.06.09.3-.07.25q-29.34-9.11-58.31-19.33c-5.49-1.93-11.05-3.71-16.41-5.95A.09.09,0,1,1,180.82,363.18Z" style="fill:#263238"></path><path d="M288.89,280.75l.68,39.72S213,312.78,191.82,310.4c0,0,28.34-72.3,52.2-96.14,11.94-11.92,25.31-10.44,33.49-1.41,2.07,2.28,18.54,31.64,20.72,44.78C300.12,269.22,288.89,280.75,288.89,280.75Z" style="fill:#7E57C2"></path><path d="M276.12,211.45l-24.91-2.72a23.5,23.5,0,0,1,4.37-1.94l16.85,1.83A22.07,22.07,0,0,1,276.12,211.45Zm3.51,4.63L246,212.41c-.67.57-1.33,1.19-2,1.85l-.32.33,37.45,4.08C280.59,217.71,280.09,216.84,279.63,216.08Zm4,7.11-43.46-4.74c-.62.71-1.22,1.45-1.84,2.22h0l46.69,5.09C284.58,224.88,284.11,224,283.66,223.19Zm3.7,7.07-52-5.67c-.54.73-1.07,1.48-1.61,2.25l54.86,6C288.23,232,287.8,231.1,287.36,230.26Zm3.45,7-59.68-6.51c-.5.75-1,1.5-1.47,2.27l62.32,6.8C291.6,239,291.2,238.15,290.81,237.3Zm3.11,7L227.18,237c-.46.75-.91,1.51-1.36,2.27l69.12,7.54C294.61,246,294.27,245.18,293.92,244.32Zm2.63,7-73.07-8-1.29,2.29,75.14,8.19Q297,252.58,296.55,251.27Zm1.76,6.86L220,249.59l-1.23,2.3,79.68,8.69A16.82,16.82,0,0,0,298.31,258.13Zm-81.68-2.23-1.19,2.3,81.82,8.92a23.49,23.49,0,0,0,.65-2.36Zm-3.22,6.31c-.39.77-.78,1.54-1.15,2.31l82.05,8.94c.43-.72.85-1.49,1.25-2.29Zm-3.13,6.34-1.11,2.3,80.71,8.8c.48-.56,1.09-1.31,1.78-2.22Zm78.66,15.25-81.69-8.91q-.54,1.17-1.08,2.31l82.81,9Zm.12,6.68-84.75-9.24q-.54,1.17-1.05,2.31l85.84,9.36Zm.11,6.68-87.72-9.57-1,2.32,88.78,9.68Zm.12,6.68L198.66,294c-.34.8-.68,1.57-1,2.32l91.67,10Zm.11,6.69-93.46-10.19-1,2.31L289.44,313Zm.11,6.68L193.3,306.72c-.39.95-.7,1.73-.94,2.33l97.2,10.59Z" style="opacity:0.1"></path><path d="M260.15,273.33a85.27,85.27,0,0,1,12.38.31c2,.23,4.06.56,6.08.92,1,.19,2,.34,3,.48a13.2,13.2,0,0,0,3.2.16c.09,0,.11.13,0,.14a22,22,0,0,1-3,.36,20.54,20.54,0,0,1-2.93-.14c-2.08-.21-4.14-.52-6.21-.76-4.17-.48-8.35-.95-12.55-1.12C260,273.67,260,273.34,260.15,273.33Z" style="fill:#263238"></path><path d="M250.58,278.34a92.46,92.46,0,0,1,10-1.89c1.7-.21,3.39-.33,5.09-.4.82,0,1.63-.05,2.45-.06s1.79.1,2.69.08c.09,0,.11.14,0,.14-.84.05-1.68.24-2.52.33l-2.53.29c-1.69.19-3.38.4-5.07.58-3.39.35-6.75.74-10.12,1.21C250.43,278.65,250.41,278.39,250.58,278.34Z" style="fill:#263238"></path><path d="M262.33,210.48c-.09,1.75,4.64,14.63,12.22,16.45,2.47.59,6.28-12.75,6.28-12.75l.51-.92,7.07-12.89-13.17-15.08-1.95-2s-1.7,3.65-3.77,8.22l-.3.65c-.12.26-.25.5-.35.74-.32.68-.64,1.38-.95,2.08-.23.53-.47,1-.69,1.61s-.47,1.11-.71,1.67A95.79,95.79,0,0,0,262.33,210.48Z" style="fill:#d3766a"></path><path d="M269.52,191.46a29.44,29.44,0,0,0,11.82,21.8l7.07-12.89-13.17-15.08-1.95-2S271.59,186.89,269.52,191.46Z" style="fill:#263238"></path><path d="M314.53,181.27c-.54,25.79-16.06,28.38-21.62,28.26-5.05-.11-22.23-1.13-24.36-26.85s10-33.62,21.61-34S315.07,155.47,314.53,181.27Z" style="fill:#d3766a"></path><path d="M310.42,177.26a16.91,16.91,0,0,1-1.71-.53,2.91,2.91,0,0,1-1.63-.86.92.92,0,0,1,.1-1.12,2.29,2.29,0,0,1,2.29-.33,3.4,3.4,0,0,1,2,1.37A1,1,0,0,1,310.42,177.26Z" style="fill:#263238"></path><path d="M293.69,176.22a17.44,17.44,0,0,0,1.77-.21,2.87,2.87,0,0,0,1.76-.56.9.9,0,0,0,.1-1.11,2.26,2.26,0,0,0-2.18-.74,3.37,3.37,0,0,0-2.2,1A1,1,0,0,0,293.69,176.22Z" style="fill:#263238"></path><path d="M294.84,196.47c.35.47.68,1.1,1.31,1.25a4.87,4.87,0,0,0,1.93-.15.06.06,0,0,1,.06.1,2.39,2.39,0,0,1-2.35.6,1.88,1.88,0,0,1-1.13-1.74C294.65,196.42,294.79,196.4,294.84,196.47Z" style="fill:#263238"></path><path d="M302.76,190.85s.11,2.64,0,3.88c0,.11-.31.14-.73.12a0,0,0,0,1,0,0,5.89,5.89,0,0,1-5.48-2.73c-.08-.13.09-.24.2-.15a8.92,8.92,0,0,0,5.2,2c.12-.34-.35-4.53-.15-4.52a10.55,10.55,0,0,1,2.74.9c-.07-5.52-1-11-1-16.49a.17.17,0,0,1,.33,0c1.41,5.65,1.64,12,1.86,17.7C305.68,192.27,303.23,191.1,302.76,190.85Z" style="fill:#263238"></path><path d="M301.89,194.37a7.23,7.23,0,0,1-3,2.06,3.23,3.23,0,0,1-2,0c-1.4-.46-1.35-1.77-1-2.87a8.09,8.09,0,0,1,.74-1.67A9.3,9.3,0,0,0,301.89,194.37Z" style="fill:#263238"></path><path d="M298.87,196.43a3.23,3.23,0,0,1-2,0c-1.4-.46-1.35-1.77-1-2.87A3.35,3.35,0,0,1,298.87,196.43Z" style="fill:#ff99ba"></path><path d="M293.24,183.05a1.63,1.63,0,0,1-.49.36,1.09,1.09,0,0,1-.95.06c-.95-.35-1.11-1.48-.92-2.5,0-.07.06-.11.09,0,.28.61.62,1.26,1.22,1.32a2.07,2.07,0,0,0,1.16-.44A5.84,5.84,0,0,0,293.24,183.05Z" style="fill:#263238"></path><path d="M292.8,182.66a2.7,2.7,0,0,1,.83-1.13,1.89,1.89,0,0,1,1.48-.32,1.68,1.68,0,0,1,1.19,1,3,3,0,0,1,.23,1.36,5.58,5.58,0,0,1-.11.82,3.81,3.81,0,0,1-.71,1.57,5.41,5.41,0,0,0,.19-1.24,6.06,6.06,0,0,0,0-1.13c-.07-.76-.37-1.45-.95-1.54s-1.15.26-1.54.93a12.24,12.24,0,0,0-.94,2.21A5.55,5.55,0,0,1,292.8,182.66Z" style="fill:#263238"></path><path d="M309.63,184.29a1.62,1.62,0,0,0,.41.45,1.09,1.09,0,0,0,.91.26c1-.15,1.39-1.22,1.41-2.26,0-.07,0-.12-.08-.06-.4.54-.87,1.11-1.46,1a2.08,2.08,0,0,1-1.05-.67A5.61,5.61,0,0,1,309.63,184.29Z" style="fill:#263238"></path><path d="M310,183.91a2.74,2.74,0,0,0-.56-1.28,1.9,1.9,0,0,0-1.38-.64,1.71,1.71,0,0,0-1.37.69,3.15,3.15,0,0,0-.53,1.28,5.69,5.69,0,0,0-.06.83,3.6,3.6,0,0,0,.35,1.68,5.72,5.72,0,0,1,.08-1.25,7.37,7.37,0,0,1,.26-1.1c.25-.73.69-1.34,1.27-1.29s1.07.5,1.3,1.24a12.49,12.49,0,0,1,.43,2.36A5.33,5.33,0,0,0,310,183.91Z" style="fill:#263238"></path><path d="M269,182.76c4.2.86,6.28-7.9,6.28-7.9s8.6,1.09,13-10.93a19.19,19.19,0,0,1-5.08,9.76s15.38.28,23.35-11.62c0,0-3.36,6.15-6,8.15,0,0,6.58-1,10.33-5.76,0,0,1.75,7.66,3.54,9.94,0,0,2.68-26.63-22.27-26.88,0,0-15.53-.89-22.59,10.61S269,182.76,269,182.76Z" style="fill:#263238"></path><path d="M274.32,184.31s-4.74-8.61-8.59-7S264.84,191,268.94,193a4.36,4.36,0,0,0,6.06-1.7Z" style="fill:#d3766a"></path><path d="M266.67,180.74a.06.06,0,0,0,0,.11c2.86,1.54,4.14,4.48,4.93,7.48-.77-1.21-1.91-1.94-3.51-1.05-.09.05,0,.18.06.17A2.69,2.69,0,0,1,271,188.7a12.84,12.84,0,0,1,1.15,2.53c.11.28.61.19.54-.13,0,0,0,0,0-.07C273.11,187.22,270.72,181.57,266.67,180.74Z" style="fill:#263238"></path><path d="M311.56,196.92a23.46,23.46,0,0,0,1.27-3.88,39.27,39.27,0,0,0,.79-4c.25-1.34.37-2.7.52-4.06s.22-2.72.33-4.09c0,.69.06,1.37.09,2.06l0,2.06a40.34,40.34,0,0,1-.4,4.1,32.65,32.65,0,0,1-.92,4A16.09,16.09,0,0,1,311.56,196.92Z" style="fill:#263238"></path><path d="M261.11,222.65c4.76,7.54,36.17,62.8,37.76,66.23,0,0-6,40-25.13,30.76-12.44-6-27.79-71.57-27.93-95.73C245.75,212.82,251.12,206.82,261.11,222.65Z" style="fill:#d3766a"></path><path d="M251.09,270.16l30.74-14.76s-12-22.73-21.63-35S241.47,208.39,244,231A280.4,280.4,0,0,0,251.09,270.16Z" style="fill:#7E57C2"></path><path d="M275.4,243.85l-27.28,13.41c.18.85.34,1.67.51,2.44l28-13.76C276.22,245.27,275.82,244.57,275.4,243.85Zm3.28,5.78L249.56,264c.21.89.4,1.69.56,2.4l29.72-14.61C279.5,251.1,279.11,250.4,278.68,249.63Z" style="opacity:0.1"></path><path d="M277.35,250q-6.39,2.83-12.64,6c-2,1-4.12,2.05-6.15,3.13s-4.12,2.36-6.23,3.47c-.15.08-.05.32.11.24,2.07-1,4.2-1.85,6.28-2.83s4.23-2.12,6.35-3.18q6.26-3.16,12.36-6.63C277.55,250.13,277.48,249.94,277.35,250Z" style="fill:#263238"></path><path d="M280.58,256c.39-.24.79-.49,1.2-.72l-.06.18c-1.27-1.85-2.42-3.77-3.61-5.67s-2.27-3.86-3.35-5.81-2.16-3.92-3.15-5.93-2-4-2.88-6.08c1.3,1.83,2.5,3.72,3.67,5.63s2.3,3.84,3.41,5.78,2.16,3.92,3.2,5.91,2,4,2.94,6l.06.14-.12,0C281.46,255.69,281,255.84,280.58,256Z" style="fill:#263238"></path><path d="M272.36,233.78a13.35,13.35,0,0,1,1,3.27,12.94,12.94,0,0,1,.18,3.41,13.35,13.35,0,0,1-1-3.27A12.92,12.92,0,0,1,272.36,233.78Z" style="fill:#263238"></path><path d="M252.9,269.16c-.61.11-1.2.33-1.81.45-.39-2.13-1-4.26-1.44-6.37s-1-4.5-1.47-6.76c-.91-4.47-1.61-9-2.46-13.46-.47-2.53-.9-5.06-1.31-7.6,0-.12-.23-.09-.23,0q.25,3.67.69,7.34l-.21-.58c-.35-1-.69-1.95-1-2.94,0-.06-.11,0-.1,0a15.08,15.08,0,0,0,.86,3.09c.16.41.35.81.54,1.21.23,1.81.48,3.62.79,5.43.75,4.5,1.67,9,2.73,13.41a71,71,0,0,0,2.09,7.59.31.31,0,0,0,.44.17c.62-.36,1.32-.57,1.95-.9C253.06,269.26,253,269.14,252.9,269.16Z" style="fill:#263238"></path><path d="M223.09,282.68a241.37,241.37,0,0,1-35.15-35.26,206.46,206.46,0,0,0,46.23-34.29,206,206,0,0,0,35.73,28.34A237.05,237.05,0,0,1,223.09,282.68Z" style="fill:#fff"></path><path d="M223.09,282.68a240.64,240.64,0,0,1-35.3-35.18l-.11-.13.15-.09A205.83,205.83,0,0,0,234,213l.18-.18.18.18A206,206,0,0,0,270,241.32l.16.1-.12.15A236.77,236.77,0,0,1,223.09,282.68Zm0,0a237,237,0,0,0,46.65-41.31l0,.24A205.68,205.68,0,0,1,234,213.3h.36a206.4,206.4,0,0,1-46.3,34.25l0-.22A240.69,240.69,0,0,0,223.09,282.68Z" style="fill:#263238"></path><path d="M236.26,230.73a29.27,29.27,0,0,1-5.94-4.68c-.42-.43-1.06.25-.65.68A29,29,0,0,0,232.2,229c-.67.64-1.33,1.29-2,1.92l-1.05,1a5.23,5.23,0,0,1-1,.8,30.24,30.24,0,0,0-2.65-2.66c-.47-.4-1.14.26-.67.66,1.94,1.62,3.29,3.77,5.47,5.2.53.34,1.2-.34.68-.68a12.89,12.89,0,0,1-2.18-1.83,4.76,4.76,0,0,0,.93-.73c.39-.36.77-.71,1.14-1.07.71-.67,1.41-1.35,2.1-2a31.33,31.33,0,0,0,2.67,1.82C236.15,231.74,236.8,231.05,236.26,230.73Z" style="fill:#a6a6a6"></path><path d="M237.76,244.65A23.82,23.82,0,0,1,233.9,241c3.57-1.26,5.42-4.5,7.94-6.83.45-.42-.33-1-.79-.57-2.53,2.34-4.37,5.75-8.16,6.75a.44.44,0,0,0-.26.68,24.55,24.55,0,0,0,4.45,4.3C237.59,245.73,238.27,245,237.76,244.65Z" style="fill:#a6a6a6"></path><path d="M243.26,242.59c.79-.88,1.47-2.26.44-3.2l-.07,0a.36.36,0,0,0-.18-.26,3.39,3.39,0,0,0-3.21.16,9,9,0,0,0-1.48,1.09,2,2,0,0,0-.84,1.25,2.17,2.17,0,0,0,.65,1.41,2.55,2.55,0,0,0,1.53,1A3.56,3.56,0,0,0,243.26,242.59Zm-2.62.53a1.19,1.19,0,0,1-1-.42,2.61,2.61,0,0,1-.68-.94c-.09-.29.25-.55.46-.74a9.86,9.86,0,0,1,1-.8,2.49,2.49,0,0,1,2.33-.43.4.4,0,0,0,.09.15c.59.53.25,1.28-.18,1.82A3.16,3.16,0,0,1,240.64,243.12Z" style="fill:#a6a6a6"></path><path d="M249.46,244.59c.37-.49-.46-1-.83-.54-.95,1.26-2.71,1.81-4.12,2.6a23.46,23.46,0,0,1-2.8,1.5,83.86,83.86,0,0,1,5.14-6.93c.4-.48-.42-1-.82-.55a84.22,84.22,0,0,0-6,8.16c-.25.39.28.69.68.61a15.34,15.34,0,0,0,4.43-2.06C246.64,246.52,248.46,245.94,249.46,244.59Z" style="fill:#a6a6a6"></path><path d="M249.77,253a3,3,0,0,1-3-.76,1.43,1.43,0,0,1-.25-1.24,3.51,3.51,0,0,1,1-1.28h0a4.59,4.59,0,0,0,1.5,1,2.79,2.79,0,0,0,2.27-.5,3.26,3.26,0,0,0,1.66-1.76,1.41,1.41,0,0,0-1-1.64c-1.64-.69-3.37.62-4.46,1.58l-.35.31a.57.57,0,0,0-.29.28,7.49,7.49,0,0,0-1.18,1.29,2.09,2.09,0,0,0-.23,1.89c.53,1.54,2.61,2.16,4.4,1.78C250.6,253.73,250.46,252.83,249.77,253Zm.87-5.46c.47-.11,1.19,0,1.3.46s-.49,1-.93,1.24-1.1.79-1.71.52a4.33,4.33,0,0,1-1.05-.74A5.36,5.36,0,0,1,250.64,247.52Z" style="fill:#a6a6a6"></path><path d="M223.34,247a17.22,17.22,0,0,0,.21-5.86.53.53,0,0,0-.54-.44c-.26,0-.53.22-.5.47a16.58,16.58,0,0,1-.2,5.62C222.18,247.37,223.22,247.58,223.34,247Z" style="fill:#a6a6a6"></path><path d="M228.69,244.32c-2.42.77-4.49,2.17-7,2.82s-5,.82-7.41,1.5a.47.47,0,1,0,.28.89c2.42-.69,5-.89,7.43-1.52s4.6-2,7-2.83A.46.46,0,1,0,228.69,244.32Z" style="fill:#a6a6a6"></path><path d="M229.8,249.63a.57.57,0,0,0-.67-.29h0a.64.64,0,0,0,.27-.21c.14-.24,0-.47-.25-.61a3.57,3.57,0,0,0-3.31.25,4.18,4.18,0,0,0-1.44,1,1.59,1.59,0,0,0-.2,1.49,3.28,3.28,0,0,0,2.45,2.21,3.16,3.16,0,0,0,2.84-.91A2.65,2.65,0,0,0,229.8,249.63Zm-2.62,3a2.16,2.16,0,0,1-1.82-1.22,1.27,1.27,0,0,1-.17-1c.13-.33.55-.54.88-.72a2.62,2.62,0,0,1,2.58-.37.51.51,0,0,0,.4,0,.42.42,0,0,0-.27.54,2,2,0,0,1,0,1.81A1.91,1.91,0,0,1,227.18,252.64Z" style="fill:#a6a6a6"></path><path d="M237,254.53c.39-.48-.44-1.06-.84-.58a7.45,7.45,0,0,1-2.91,2.13,8.9,8.9,0,0,1-1.91.55,4.35,4.35,0,0,1-1.9,0,.92.92,0,0,1-.64-1.08,2.41,2.41,0,0,1,1-1.38c1.13-.9,2.37-1.71,3.53-2.57a.43.43,0,0,0,.15-.63.6.6,0,0,0-.75-.12l-3.33,2.4c-.94.69-1.86,1.57-1.73,2.69.3,2.51,4.33,1.67,6.11.9A8.37,8.37,0,0,0,237,254.53Z" style="fill:#a6a6a6"></path><path d="M231.21,262.65c-.41-1.43-2-2.21-3.71-2.22a13.36,13.36,0,0,0-3.86.59,5.68,5.68,0,0,0,.11-2.75c-.31-1.39-1.3-3.07-3.3-3a5.3,5.3,0,0,0-4.1,2.73,8.12,8.12,0,0,0-.91,4.87c.15,2,.65,4,.44,6,0,.23.25.48.56.48a34.68,34.68,0,0,0,6.62-.73,19,19,0,0,0,6-2.05C230.58,265.69,231.65,264.2,231.21,262.65Zm-7.93,5a32.77,32.77,0,0,1-6.21.79c.11-3.37-1.64-7.11.39-10.22.93-1.42,3.55-3.2,4.79-.94a4.72,4.72,0,0,1,.06,4.24,6.74,6.74,0,0,0-1,.57c-.54.39.24,1.06.78.67a1.32,1.32,0,0,1,.2-.12.54.54,0,0,0,.73-.14c.05-.11.09-.21.14-.31a10.23,10.23,0,0,1,2-.57,10.35,10.35,0,0,1,2.78-.29c2.51.19,2.76,2.46,1.41,3.81S225.4,267.19,223.28,267.67Z" style="fill:#7E57C2"></path><path d="M214,256.66a2.52,2.52,0,0,0-.89-1.79,6.67,6.67,0,0,0-2.76-1.71,2.88,2.88,0,0,0,.79-2.87,3.82,3.82,0,0,0-1.42-1.78,2.74,2.74,0,0,0-2.12-.16c-3.88,1-2.91,5.32-5.46,7.34a.41.41,0,0,0-.07.64,2.73,2.73,0,0,0,1.14.61l1.56.54c.91.31,1.82.62,2.76.87a7.89,7.89,0,0,0,5.17-.08A2,2,0,0,0,214,256.66Zm-2.78,1.09a8.92,8.92,0,0,1-4-.44c-.7-.21-1.39-.45-2.08-.68l-1.08-.37a7.77,7.77,0,0,1-.77-.26,7.26,7.26,0,0,0,1.61-2.77,6.92,6.92,0,0,1,1.87-3.39,3,3,0,0,1,1.81-.72c.71,0,1.18.73,1.43,1.21.51,1-.16,1.89-.86,2.65a3.92,3.92,0,0,0-.9.08.46.46,0,1,0,.2.9,3,3,0,0,1,.5-.06.69.69,0,0,0,.67,0,5.13,5.13,0,0,1,2.67,1.53c.36.36.72.84.57,1.32S211.92,257.65,211.26,257.75Z" style="fill:#7E57C2"></path><path d="M352.55,234.48c-7.55,13.36-23.61,37.69-30.8,39.49-14.49,3.62-37.95-7.39-44.11-11.08-2.88-1.72,4.18-25,7.75-24.55,3.89.49,29.42,11.24,32.21,9.7,2.35-1.3,15-12.64,24.89-21.14C355,216.18,358.94,223.17,352.55,234.48Z" style="fill:#d3766a"></path><path d="M293.15,241.2s-7.49-7.23-12.61-11.73c-2.86-2.51-8.14-6.37-11.08-7.25-4.4-1.32-23.65-4-24.41.61-.69,4.22,16.15,4.45,16.15,4.45s-17-1.74-16.86,3.49,19.16,2.95,19.16,2.95-17.47-1.39-16.51,4c.72,4.06,18.1,3,18.1,3s-15-1.1-14.46,3.11c.62,4.64,16.72,4.65,16.72,4.65,3.24,10.45,9.06,14.1,13.51,16.2C281.93,265.15,293.15,241.2,293.15,241.2Z" style="fill:#d3766a"></path><path d="M266.3,227.45c-12.4-2.24-19.17.47-19,.43,4.59-.84,11.76-.59,13.77-.49s3.2,0,5.2.13C266.35,227.52,266.34,227.45,266.3,227.45Z" style="fill:#263238"></path><path d="M266.88,234.74a42.89,42.89,0,0,0-15.17-.69c-.19,0-.13.11.07.11,2.55.06,12.56.47,15.1.64C266.92,234.81,266.92,234.75,266.88,234.74Z" style="fill:#263238"></path><path d="M267.8,241A31.88,31.88,0,0,0,256,240.8c-.19,0-.09.14.11.14,3.91,0,7-.05,11.63.19C267.86,241.13,267.88,241,267.8,241Z" style="fill:#263238"></path><path d="M326.23,241c-2.32,2.09-4.66,4.16-7.14,6.07-.31.24-.63.47-.95.69a2.9,2.9,0,0,1-1.09.52,10.76,10.76,0,0,1-2.34-.26c-1.54-.31-3-.72-4.55-1.16-3-.87-6-1.86-8.93-2.88s-5.9-2.07-8.82-3.19l-.05,0,0,0c-3.88-3.83-7.88-7.55-12.06-11.05a75.38,75.38,0,0,0-6.49-4.93,21,21,0,0,0-3.53-1.94,11.54,11.54,0,0,0-1.92-.55c-.66-.15-1.32-.28-2-.4a78.77,78.77,0,0,0-8.09-1,44.82,44.82,0,0,0-8.11,0,10.19,10.19,0,0,0-3.77,1,1.82,1.82,0,0,0-1,1.28c-.05.46.38.92.91,1.25A13,13,0,0,0,250,225.8a36.16,36.16,0,0,0,3.94.9l0,.58a25.55,25.55,0,0,0-5.24.65,10.19,10.19,0,0,0-2.41.88,2.68,2.68,0,0,0-1.49,1.68,1.77,1.77,0,0,0,.85,1.86,6.59,6.59,0,0,0,2.32.91,22.24,22.24,0,0,0,5.27.59l0,.39a12.25,12.25,0,0,0-4.38,1.54,2.7,2.7,0,0,0-1.35,1.45,1.33,1.33,0,0,0,0,.84,1.6,1.6,0,0,0,.61.67,11.46,11.46,0,0,0,4.37,1.39,37,37,0,0,0,4.81.49l-.11.32a12.25,12.25,0,0,0-3.11.61,6,6,0,0,0-2.67,1.4c-.66.62-.34,1.49.47,2.1a9.55,9.55,0,0,0,2.74,1.39,29.2,29.2,0,0,0,6.25,1.32,46,46,0,0,0,6.43.26h.32l.1.32a30.55,30.55,0,0,0,1.71,4.36,28.85,28.85,0,0,0,2.33,4.08,18.39,18.39,0,0,0,6.78,6.25h0A108.69,108.69,0,0,0,298,271.57a67.69,67.69,0,0,0,10.29,2.5,36,36,0,0,0,10.52.23l1.3-.21,1.28-.3a6.78,6.78,0,0,0,2.3-1.1,31,31,0,0,0,4-3.45,98.33,98.33,0,0,0,7-8,206.2,206.2,0,0,0,12.29-17.37,201.87,201.87,0,0,1-12.05,17.55,98.79,98.79,0,0,1-6.89,8.14,27.82,27.82,0,0,1-4,3.55,7.28,7.28,0,0,1-2.46,1.18l-1.31.32-1.32.23a36.82,36.82,0,0,1-10.69-.19,67.1,67.1,0,0,1-10.39-2.47,110.22,110.22,0,0,1-19.57-8.5h0a16.3,16.3,0,0,1-4-2.79,23.41,23.41,0,0,1-3.14-3.68,32.69,32.69,0,0,1-2.41-4.17,32.26,32.26,0,0,1-1.78-4.49l.42.3a46.17,46.17,0,0,1-6.55-.23,30.05,30.05,0,0,1-6.46-1.34,10.37,10.37,0,0,1-3-1.53,3,3,0,0,1-1.11-1.52,2,2,0,0,1,.54-1.93,6.73,6.73,0,0,1,3.13-1.52,21.54,21.54,0,0,1,3.42-.17l-.11.32a35.4,35.4,0,0,1-4.83,0,18.35,18.35,0,0,1-2.42-.44,7.27,7.27,0,0,1-2.36-1,2.52,2.52,0,0,1-.95-1.1,1.75,1.75,0,0,1-.15-.78,3,3,0,0,1,.11-.72,3.6,3.6,0,0,1,1.8-2,12.69,12.69,0,0,1,4.83-1.1l0,.39a22.83,22.83,0,0,1-5.48-.09,7.32,7.32,0,0,1-2.64-1.07,2.87,2.87,0,0,1-1-1.18,2.56,2.56,0,0,1-.17-1.59,3.49,3.49,0,0,1,1.93-2.26,10.25,10.25,0,0,1,2.63-1,25.15,25.15,0,0,1,5.42-.27l0,.45a37.53,37.53,0,0,1-4.09-.69,13.4,13.4,0,0,1-3.95-1.46,3.45,3.45,0,0,1-.87-.76,1.8,1.8,0,0,1-.4-1.22,2.53,2.53,0,0,1,1.37-1.88,10.79,10.79,0,0,1,4.08-1.12,45.47,45.47,0,0,1,8.25,0,79.88,79.88,0,0,1,8.16,1.07c.67.13,1.35.26,2,.42a12.67,12.67,0,0,1,2,.58,21.44,21.44,0,0,1,3.64,2,79.37,79.37,0,0,1,6.52,5c4.18,3.54,8.17,7.28,12,11.14l-.09,0c5.83,2.23,11.68,4.44,17.64,6.29,1.49.45,3,.89,4.52,1.21a10,10,0,0,0,2.29.29,2.68,2.68,0,0,0,1-.48c.33-.21.65-.44,1-.67C321.51,245.12,323.88,243.07,326.23,241Z" style="fill:#263238"></path><path d="M328.27,235.91l15,16.44s10-15,12.07-24.76-2.73-9.34-8.92-5.45S328.27,235.91,328.27,235.91Z" style="fill:#455a64"></path><path d="M332.16,234.65c-.09-.11-.2-.07-.11,0a150.51,150.51,0,0,0,12.66,13.75s.08,0,.05-.06C343,245.87,333.22,235.86,332.16,234.65Z" style="fill:#263238"></path><path d="M341.68,225.27c-4.6,3.43-9.33,7.17-13.71,10.66a19.93,19.93,0,0,0,1.9,1.88c.11.1.18,0,.08-.15-.24-.27-1.21-1.32-1.42-1.63,4.43-3.52,8.86-7.05,13.19-10.7C341.75,225.3,341.71,225.25,341.68,225.27Z" style="fill:#263238"></path><path d="M353.46,235.23c-.39.5-.75,1-1.09,1.55l-.25.4c.69-1.69,1.32-3.41,1.86-5.17a.07.07,0,0,0-.13,0,95.15,95.15,0,0,1-5,10.49c-.9,1.66-1.85,3.3-2.78,4.94-.46.81-.92,1.62-1.39,2.42s-.93,1.55-1.3,2.36c-.38-.38-.77-.75-1.14-1.15-.06-.07-.17,0-.12.1.4.51.77,1,1.14,1.57a.23.23,0,0,0,.36,0,34.82,34.82,0,0,0,3.07-4.85c1-1.69,2-3.42,2.87-5.16.78-1.49,1.49-3,2.16-4.55.65-.94,1.3-1.87,1.87-2.86C353.6,235.24,353.51,235.17,353.46,235.23Z" style="fill:#263238"></path><path d="M370.26,220.84a5.24,5.24,0,0,1,.68,6.21s5-.66,7.2,2.92c1.12,1.85-.83,5.26-.83,5.26s4-.35,5.79,3c1.4,2.63-.77,5.66-.77,5.66s4,1.47,4.59,4.61c1.14,6.36-20.07,20.66-28.61,15-4-2.61,1.39-5.82,1.39-5.82s-8.84,2.75-11.9-1.55,4.17-8,4.17-8-8.58,2.6-11.31-2.18c-2.83-5,5-7.48,5-7.48s-6.87,0-8.11-4.15c-2.06-6.83,11.65-5.75,15.57-10l-2.61-9.42S367.28,217.39,370.26,220.84Z" style="fill:#d3766a"></path><path d="M382.06,244.38a.07.07,0,0,1,.09.1c-5.83,6.4-14.2,11.64-22.72,13.42-.28.06-.5-.37-.2-.5A90.37,90.37,0,0,0,382.06,244.38Z" style="fill:#263238"></path><path d="M377.44,235.21c.08-.06.19.07.11.14-6,6.57-15.63,12.22-25.7,13.11-.34,0-.68-.29-.29-.36C358.21,247,371,240.4,377.44,235.21Z" style="fill:#263238"></path><path d="M345.19,238c9.62-1.22,17.88-5.41,25.75-10.93.1-.07.19.08.12.17-3.11,3.75-8.49,6.74-12.88,8.72a25.54,25.54,0,0,1-12.95,2.38C345.05,238.31,345,238,345.19,238Z" style="fill:#263238"></path><path d="M336.47,311.46c15.67-4.08,31.93-10.66,42.68-23.7a8.37,8.37,0,0,0,2-5.09c4.93-5.76,3.69-9.82,3.69-9.82,2.94-6.77,1.1-10.74,1.1-10.74s5.71-6.83,2.15-11c-4-4.64-11.21,5.85-18.72,9.19-17.21,7.65-43.81,13.71-49,15.43Z" style="fill:#d3766a"></path><path d="M357,281c5-2.36,10-4.54,14.69-7.56,5.13-3.31,9.51-7.36,14.07-11.37a.15.15,0,0,1,.21.21c-7.11,8.56-18.26,15.64-28.87,18.94C356.86,281.34,356.76,281.14,357,281Z" style="fill:#263238"></path><path d="M360.12,292.08c4.75-2.56,13.09-7.11,24.63-19.35,0,0,.11,0,.08.06a57.54,57.54,0,0,1-24.59,19.52C359.93,292.45,359.8,292.25,360.12,292.08Z" style="fill:#263238"></path><path d="M361.9,298c7.92-4.66,12.33-8.61,19.24-15.33,0,0,.12,0,.08.06-7.06,8.47-10.57,10.74-19.2,15.56C361.72,298.46,361.59,298.18,361.9,298Z" style="fill:#263238"></path><path d="M348.09,268.24c-2.64.11-2.71-1.28.85-4.32s20.26-12.09,16.62-17.65-27,7.54-32.56,13.07-12.59,16.42-12.59,16.42C325.47,274.12,338.12,271.32,348.09,268.24Z" style="fill:#d3766a"></path><path d="M349.51,248.87a41.21,41.21,0,0,1,7.41-3.43,20,20,0,0,1,4-1,8.33,8.33,0,0,1,2.12-.05,4.32,4.32,0,0,1,2.13.75,3.09,3.09,0,0,1,1.14,2,4.53,4.53,0,0,1-.29,2.21,11.34,11.34,0,0,1-2.29,3.51,47.3,47.3,0,0,1-10.24,7.78c1-.88,6-4.35,6.95-5.3a28.24,28.24,0,0,0,2.75-2.94,11.76,11.76,0,0,0,2-3.34,3.81,3.81,0,0,0,.22-1.78,2.18,2.18,0,0,0-.81-1.43,5.26,5.26,0,0,0-3.6-.57,24.29,24.29,0,0,0-3.9.79c-1.3.36-2.57.8-3.84,1.27S350.76,248.35,349.51,248.87Z" style="fill:#263238"></path><path d="M358.73,264.52c1.14-.62,10.19-4.23,11.3-4.89a24.47,24.47,0,0,0,6.19-4.54c1-.86,2-1.71,3-2.51a21.82,21.82,0,0,1,3.34-2.14,10,10,0,0,1,1.9-.7,4.08,4.08,0,0,1,1.05-.13,2.37,2.37,0,0,1,.53,0l.53.12a3.6,3.6,0,0,1,1.76,1.14,4.4,4.4,0,0,1,.88,1.85,8.45,8.45,0,0,1-.26,3.91,9,9,0,0,0-.18-3.8,3.94,3.94,0,0,0-.87-1.58,3,3,0,0,0-1.51-.84,5.42,5.42,0,0,0-3.44.79,22.33,22.33,0,0,0-3.18,2.09c-1,.77-2,1.6-3,2.44a28.78,28.78,0,0,1-3.09,2.43C369.31,261.16,361.17,263.61,358.73,264.52Z" style="fill:#263238"></path><path d="M320,275.6c5.19-.22,33.09,27.42,26.38,31.08-31.56,17.2-62.69,16-69.55,14.16-9-2.44-12-13.67-9.64-19.27C270.64,293.45,314.82,275.82,320,275.6Z" style="fill:#d3766a"></path><path d="M281.91,290.58c15.76-10.43,38.34-15.11,38.38-15.13.33-.14,1,.07.77.15-3.37,1.53-26.62,8.92-38.83,15.36C282.12,291,281.8,290.65,281.91,290.58Z" style="fill:#263238"></path><path d="M320.41,275.76a136.71,136.71,0,0,1,8-11.85,39.24,39.24,0,0,1,4.76-5.42c1.91-1.54,3.89-2.81,5.9-4.13a98.22,98.22,0,0,1,12.63-6.78,47.28,47.28,0,0,1,6.78-2.36,12.79,12.79,0,0,1,3.59-.38,8.23,8.23,0,0,1,1.78.26,2.65,2.65,0,0,1,1.5,1,2.56,2.56,0,0,0-1.53-.81,7.4,7.4,0,0,0-1.75-.15,12.36,12.36,0,0,0-3.47.58,49,49,0,0,0-6.59,2.6,111.37,111.37,0,0,0-12.4,6.92c-2,1.27-4,2.56-5.84,4a47.22,47.22,0,0,0-4.76,5.2c-1.5,1.84-2.95,3.72-4.37,5.63S321.82,273.83,320.41,275.76Z" style="fill:#263238"></path></g><g id="freepik--Hearts--inject-41"><path d="M235.09,148.53c-1.73,9.73-10.28,17.7-10.28,17.7s-11.5-2.11-18.19-9.38c-5.58-6.06-5.6-14.38-.55-17.67,7.24-4.72,13.32,8.51,13.32,8.51s-2-14.42,6.65-14.34C232.07,133.4,236.53,140.42,235.09,148.53Z" style="fill:#7E57C2"></path><path d="M261,125.33c-6,4.09-14.61,3.68-14.61,3.68s-4.79-7.14-4.4-14.4c.33-6.06,4.7-10.34,9-9.37,6.21,1.39,2.36,11.39,2.36,11.39s6.57-8.46,11-3.87C267.42,116,266,121.92,261,125.33Z" style="fill:#7E57C2"></path><path d="M229.38,97.32c-2.43,4.15-7.67,6.36-7.67,6.36s-4.9-2.9-6.74-7.35c-1.53-3.71-.13-7.51,2.73-8.17,4.1-.94,4.65,6.13,4.65,6.13s1.51-6.92,5.45-5.43C230.55,89.9,231.41,93.85,229.38,97.32Z" style="fill:#7E57C2"></path></g><g id="freepik--speech-bubble--inject-41"><path d="M308.58,133.72a19.26,19.26,0,0,1-3.3-10.66c0-13.5,14.82-24.45,33.1-24.45s33.09,11,33.09,24.45-14.81,24.45-33.09,24.45a39.71,39.71,0,0,1-22.83-6.77l-11.41,2.9Z" style="fill:#fffefd"></path><path d="M308.58,133.72a19.55,19.55,0,0,1-3.4-10.08,19.24,19.24,0,0,1,2.62-10.36,25.91,25.91,0,0,1,7.28-7.93,34.52,34.52,0,0,1,9.61-4.91,43.51,43.51,0,0,1,21.4-1.58,38.36,38.36,0,0,1,10.33,3.21,32.07,32.07,0,0,1,8.92,6.17,22.78,22.78,0,0,1,5.75,9.21,18.61,18.61,0,0,1,.11,10.86,22.61,22.61,0,0,1-5.61,9.3,31.88,31.88,0,0,1-8.84,6.27,42.64,42.64,0,0,1-21.1,3.9,42,42,0,0,1-10.59-2,35.26,35.26,0,0,1-9.64-4.82l.18,0-11.43,2.79-.22.05.09-.2Zm0,0-4.34,10-.12-.15,11.37-3,.1,0,.09.06a39,39,0,0,0,20,6.5,44.23,44.23,0,0,0,10.59-.71,37.82,37.82,0,0,0,10.07-3.27,30.83,30.83,0,0,0,8.57-6.12,21.54,21.54,0,0,0,5.34-8.92,17.64,17.64,0,0,0-.13-10.3,21.81,21.81,0,0,0-5.48-8.83,31.26,31.26,0,0,0-8.63-6,37.52,37.52,0,0,0-10.09-3.18,46.45,46.45,0,0,0-10.6-.59,44,44,0,0,0-10.42,2,34,34,0,0,0-9.5,4.71,26.24,26.24,0,0,0-7.25,7.67,19,19,0,0,0-2.77,10.14A19.39,19.39,0,0,0,308.58,133.72Z" style="fill:#263238"></path><path d="M323.65,115.05h-1.91v6.41a.66.66,0,0,1-1.32,0v-6.41h-1.89a.66.66,0,0,1-.66-.67.65.65,0,0,1,.66-.66h5.12a.66.66,0,0,1,.66.66A.67.67,0,0,1,323.65,115.05Z" style="fill:#263238"></path><path d="M326.29,121.46v-7.08a.65.65,0,0,1,.66-.66.66.66,0,0,1,.67.66v2.88h3.11v-2.88a.65.65,0,0,1,.66-.66.66.66,0,0,1,.67.66v7.08a.66.66,0,0,1-.67.66.65.65,0,0,1-.66-.66v-2.88h-3.11v2.88a.66.66,0,0,1-.67.66A.65.65,0,0,1,326.29,121.46Z" style="fill:#263238"></path><path d="M338.3,120.14h-2.92l-.58,1.56a.68.68,0,0,1-.63.42.78.78,0,0,1-.22,0,.68.68,0,0,1-.4-.86l2.65-7.07a.69.69,0,0,1,1.27,0l2.65,7.07a.68.68,0,0,1-.39.86.79.79,0,0,1-.23,0,.64.64,0,0,1-.61-.42Zm-.49-1.32-1-2.58-1,2.58Z" style="fill:#263238"></path><path d="M343.09,121.46a.66.66,0,1,1-1.31,0v-7h0a.65.65,0,0,1,1.18-.41l3.87,5.36v-4.94a.66.66,0,0,1,.65-.65.66.66,0,0,1,.66.65v7a.65.65,0,0,1-1.15.42.21.21,0,0,1-.06-.08l-3.84-5.32Z" style="fill:#263238"></path><path d="M351,121.46v-7a.66.66,0,0,1,1.32,0v3.44l3.89-3.89a.64.64,0,0,1,.93,0,.67.67,0,0,1,0,.93l-2.64,2.63,2.67,3.49a.65.65,0,0,1-.1.92.6.6,0,0,1-.42.16.66.66,0,0,1-.49-.24l-2.59-3.4-1.25,1.27v1.71a.66.66,0,1,1-1.32,0Z" style="fill:#263238"></path><path d="M330.41,129.25,328,132.62v3.24a.65.65,0,0,1-.66.66.67.67,0,0,1-.66-.66v-3.24l-2.43-3.37a.63.63,0,0,1,.13-.91.63.63,0,0,1,.91.14l2.05,2.81,2-2.81a.65.65,0,0,1,.92-.14A.66.66,0,0,1,330.41,129.25Z" style="fill:#263238"></path><path d="M337.71,129.16a4.41,4.41,0,0,1,1.22,3,4.35,4.35,0,0,1-1.22,3,3.91,3.91,0,0,1-2.86,1.29,4.06,4.06,0,0,1-2.94-1.29,4.37,4.37,0,0,1-1.19-3,4.43,4.43,0,0,1,1.19-3,4,4,0,0,1,2.94-1.28A3.87,3.87,0,0,1,337.71,129.16Zm-.15,3a3.07,3.07,0,0,0-.82-2.1,2.57,2.57,0,0,0-1.89-.85,2.59,2.59,0,0,0-1.94.85,3.09,3.09,0,0,0,0,4.19,2.6,2.6,0,0,0,1.94.86,2.58,2.58,0,0,0,1.89-.86A3,3,0,0,0,337.56,132.2Z" style="fill:#263238"></path><path d="M344.23,136.52a3.46,3.46,0,0,1-3.46-3.47v-4.27a.65.65,0,0,1,.66-.66.67.67,0,0,1,.67.66v4.27a2.14,2.14,0,1,0,4.27,0v-4.27a.66.66,0,0,1,.67-.66.65.65,0,0,1,.66.66v4.27A3.47,3.47,0,0,1,344.23,136.52Z" style="fill:#263238"></path><path d="M350.39,133.63v-4.85a.67.67,0,0,1,.66-.66.66.66,0,0,1,.65.66v4.85a.65.65,0,0,1-.65.66A.66.66,0,0,1,350.39,133.63Zm.66,2.89a.66.66,0,0,1-.66-.66v-.24a.67.67,0,0,1,.66-.66.66.66,0,0,1,.65.66v.24A.65.65,0,0,1,351.05,136.52Z" style="fill:#263238"></path></g></svg>